<svg id="svg" version="1.1" xmlns="http://www.w3.org/2000/svg" xmlns:xlink="http://www.w3.org/1999/xlink" width="400" height="399.4764397905759" viewBox="0, 0, 400,399.4764397905759"><g id="svgg"><path id="path0" d="M0.000 0.400 C 0.000 0.665,66.933 0.799,200.000 0.799 C 333.067 0.799,400.000 0.665,400.000 0.400 C 400.000 0.134,333.067 0.000,200.000 0.000 C 66.933 0.000,0.000 0.134,0.000 0.400 M190.210 227.216 C 190.210 227.622,189.990 227.773,189.610 227.628 C 189.249 227.489,189.011 227.626,189.011 227.972 C 189.011 228.318,188.773 228.455,188.412 228.316 C 188.080 228.189,187.812 228.305,187.812 228.575 C 187.812 228.868,187.491 228.980,187.013 228.855 C 186.573 228.740,186.214 228.809,186.214 229.008 C 186.214 229.208,185.629 229.395,184.915 229.425 C 183.911 229.467,183.829 229.520,184.554 229.658 C 185.281 229.796,185.441 230.025,185.270 230.681 C 185.148 231.146,185.220 231.733,185.429 231.986 C 185.671 232.277,185.658 233.266,185.393 234.698 C 184.738 238.241,186.157 243.838,187.772 244.084 C 188.234 244.154,188.611 244.011,188.611 243.766 C 188.611 243.478,189.079 243.408,189.933 243.568 C 191.251 243.816,191.255 243.812,191.088 242.382 C 190.996 241.593,191.098 240.726,191.315 240.454 C 192.185 239.365,191.906 226.573,191.012 226.573 C 190.542 226.573,190.210 226.839,190.210 227.216 " stroke="none" fill="#242825" fill-rule="evenodd"></path><path id="path1" d="M207.025 116.195 C 207.000 116.590,205.402 116.696,199.943 116.664 C 194.900 116.634,192.809 116.757,192.599 117.096 C 192.400 117.418,191.764 117.478,190.609 117.283 C 189.364 117.072,188.822 117.140,188.574 117.539 C 188.323 117.942,188.053 117.974,187.525 117.662 C 186.726 117.190,185.415 117.345,185.415 117.911 C 185.415 118.115,184.965 118.282,184.416 118.282 C 183.866 118.282,183.417 118.074,183.417 117.821 C 183.417 117.568,183.079 117.750,182.665 118.226 C 182.178 118.788,181.672 119.000,181.226 118.829 C 180.823 118.674,180.390 118.795,180.179 119.123 C 179.884 119.581,179.760 119.586,179.479 119.151 C 179.201 118.721,179.019 118.740,178.508 119.251 C 178.162 119.597,177.607 119.880,177.275 119.880 C 176.943 119.880,176.564 120.052,176.434 120.262 C 176.304 120.472,175.934 120.543,175.612 120.419 C 175.289 120.296,175.025 120.405,175.025 120.663 C 175.025 120.951,174.715 121.034,174.226 120.879 C 173.734 120.723,173.427 120.807,173.427 121.099 C 173.427 121.385,173.041 121.498,172.448 121.385 C 171.854 121.271,171.388 121.407,171.264 121.731 C 171.151 122.024,170.801 122.165,170.485 122.044 C 170.169 121.923,169.790 122.019,169.643 122.257 C 169.496 122.495,169.208 122.587,169.003 122.460 C 168.799 122.334,168.631 122.442,168.631 122.700 C 168.631 122.973,168.297 123.083,167.832 122.961 C 167.393 122.846,167.033 122.896,167.033 123.071 C 167.033 123.246,166.583 123.503,166.034 123.641 C 165.485 123.779,165.035 124.080,165.035 124.310 C 165.035 124.547,164.688 124.619,164.236 124.476 C 163.777 124.330,163.437 124.404,163.437 124.648 C 163.437 124.883,163.161 125.075,162.825 125.075 C 162.488 125.075,162.119 125.319,162.005 125.617 C 161.890 125.916,161.087 126.394,160.219 126.680 C 159.351 126.967,158.641 127.371,158.641 127.579 C 158.641 127.787,158.372 127.854,158.042 127.728 C 157.712 127.601,157.443 127.684,157.443 127.912 C 157.443 128.139,157.102 128.217,156.685 128.085 C 156.126 127.908,155.943 128.031,155.986 128.558 C 156.018 128.950,155.819 129.226,155.544 129.171 C 155.270 129.116,155.045 129.270,155.045 129.513 C 155.045 129.757,154.784 129.856,154.466 129.733 C 154.116 129.599,153.789 129.819,153.640 130.291 C 153.451 130.886,153.161 131.013,152.416 130.825 C 151.631 130.628,151.488 130.706,151.687 131.224 C 151.849 131.648,151.719 131.868,151.306 131.868 C 150.960 131.868,150.485 132.228,150.250 132.667 C 150.015 133.107,149.565 133.467,149.251 133.467 C 148.937 133.467,148.482 133.835,148.241 134.285 C 147.967 134.797,147.551 135.023,147.128 134.889 C 146.647 134.736,146.129 135.184,145.332 136.444 C 144.570 137.650,143.773 138.359,142.836 138.668 C 142.078 138.918,141.459 139.317,141.459 139.555 C 141.459 140.072,135.520 145.854,134.988 145.854 C 134.785 145.854,134.720 146.019,134.845 146.221 C 135.172 146.750,133.403 149.374,132.515 149.679 C 131.960 149.870,131.895 150.020,132.268 150.250 C 132.633 150.476,132.483 150.751,131.724 151.249 C 131.148 151.626,130.783 152.108,130.913 152.318 C 131.043 152.529,130.767 152.801,130.299 152.924 C 129.708 153.078,129.516 153.361,129.671 153.848 C 129.805 154.270,129.650 154.644,129.283 154.785 C 128.946 154.914,128.671 155.295,128.671 155.632 C 128.671 155.968,128.382 156.244,128.029 156.244 C 127.629 156.244,127.472 156.465,127.612 156.830 C 127.736 157.153,127.662 157.525,127.449 157.657 C 127.235 157.789,127.163 158.065,127.290 158.269 C 127.416 158.474,127.229 158.641,126.873 158.641 C 126.518 158.641,126.335 158.817,126.468 159.032 C 126.700 159.407,125.199 161.895,124.573 162.172 C 124.407 162.246,124.373 162.472,124.499 162.675 C 124.624 162.877,124.445 163.324,124.101 163.668 C 123.758 164.012,123.477 164.550,123.477 164.864 C 123.477 165.178,123.314 165.435,123.114 165.435 C 122.915 165.435,122.846 165.794,122.961 166.234 C 123.083 166.698,122.973 167.033,122.700 167.033 C 122.442 167.033,122.348 167.222,122.491 167.454 C 122.634 167.685,122.411 168.180,121.997 168.553 C 121.582 168.926,121.309 169.545,121.390 169.930 C 121.471 170.315,121.325 170.629,121.065 170.629 C 120.806 170.629,120.697 170.899,120.824 171.229 C 120.950 171.558,120.880 171.828,120.667 171.828 C 120.454 171.828,120.280 172.188,120.280 172.627 C 120.280 173.067,120.096 173.427,119.873 173.427 C 119.638 173.427,119.571 173.849,119.716 174.426 C 119.877 175.067,119.799 175.425,119.497 175.425 C 119.209 175.425,119.125 175.734,119.281 176.224 C 119.437 176.716,119.353 177.023,119.061 177.023 C 118.772 177.023,118.662 177.411,118.779 178.022 C 118.908 178.697,118.791 179.021,118.418 179.021 C 118.029 179.021,117.941 179.316,118.119 180.025 C 118.258 180.577,118.168 181.274,117.920 181.573 C 117.672 181.872,117.581 182.409,117.718 182.767 C 117.865 183.150,117.766 183.417,117.475 183.417 C 117.143 183.417,117.060 183.801,117.220 184.600 C 117.350 185.251,117.282 185.891,117.070 186.022 C 116.857 186.153,116.683 186.970,116.683 187.836 C 116.683 188.716,116.489 189.411,116.243 189.411 C 115.938 189.411,115.889 190.268,116.084 192.208 C 116.279 194.148,116.230 195.005,115.925 195.005 C 115.621 195.005,115.485 197.119,115.485 201.798 C 115.485 206.449,115.622 208.591,115.922 208.591 C 116.216 208.591,116.269 209.242,116.084 210.589 C 115.899 211.937,115.951 212.587,116.246 212.587 C 116.488 212.587,116.683 213.286,116.683 214.153 C 116.683 215.013,116.889 215.786,117.140 215.870 C 117.481 215.983,117.477 216.247,117.126 216.902 C 116.730 217.643,116.759 217.782,117.312 217.782 C 117.813 217.782,117.909 218.019,117.718 218.781 C 117.566 219.389,117.638 219.780,117.902 219.780 C 118.142 219.780,118.278 220.185,118.207 220.679 C 118.135 221.174,118.340 221.784,118.663 222.035 C 119.154 222.416,119.163 222.596,118.721 223.129 C 118.275 223.666,118.295 223.806,118.848 224.019 C 119.274 224.182,119.421 224.534,119.266 225.022 C 119.134 225.438,119.218 225.774,119.454 225.774 C 120.058 225.774,119.986 226.970,119.381 226.986 C 119.098 226.993,119.215 227.251,119.651 227.581 C 120.075 227.901,120.305 228.280,120.162 228.422 C 120.020 228.565,120.269 229.195,120.716 229.822 C 121.163 230.450,121.417 231.145,121.280 231.366 C 121.144 231.587,121.222 231.768,121.455 231.768 C 121.688 231.768,121.878 232.205,121.878 232.739 C 121.878 233.272,122.124 233.955,122.425 234.256 C 122.725 234.557,123.097 235.199,123.251 235.683 C 123.405 236.167,123.717 236.563,123.946 236.563 C 124.174 236.563,124.258 236.833,124.131 237.163 C 124.005 237.493,124.068 237.762,124.272 237.762 C 124.476 237.762,124.859 238.482,125.122 239.361 C 125.386 240.240,125.747 240.959,125.925 240.959 C 126.103 240.959,126.151 241.213,126.032 241.522 C 125.902 241.862,126.148 242.191,126.650 242.350 C 127.109 242.496,127.389 242.768,127.274 242.956 C 127.158 243.143,127.596 243.880,128.248 244.594 C 128.900 245.307,129.353 246.021,129.254 246.180 C 129.156 246.340,129.344 246.573,129.673 246.699 C 130.001 246.825,130.270 247.250,130.270 247.644 C 130.270 248.037,130.629 248.584,131.069 248.858 C 131.508 249.133,131.868 249.606,131.868 249.911 C 131.868 250.215,132.157 250.575,132.509 250.710 C 132.871 250.849,133.051 251.212,132.923 251.546 C 132.786 251.904,133.045 252.315,133.581 252.591 C 135.038 253.342,136.219 254.596,136.003 255.160 C 135.884 255.470,136.305 255.952,137.015 256.319 C 137.855 256.753,138.376 257.432,138.699 258.511 C 139.013 259.559,139.348 260.005,139.714 259.864 C 140.014 259.749,140.260 259.824,140.260 260.031 C 140.260 260.746,143.337 263.736,144.094 263.757 C 144.513 263.768,145.395 264.443,146.054 265.255 C 146.713 266.068,147.522 266.733,147.852 266.733 C 148.252 266.733,148.418 267.066,148.350 267.732 C 148.281 268.415,148.359 268.562,148.595 268.198 C 148.870 267.773,148.992 267.802,149.199 268.340 C 149.344 268.719,149.709 268.917,150.033 268.793 C 150.376 268.661,150.705 268.878,150.849 269.331 C 150.982 269.748,151.322 270.000,151.605 269.891 C 151.888 269.783,152.349 269.970,152.629 270.307 C 152.909 270.644,153.284 270.830,153.463 270.719 C 153.642 270.608,153.901 270.871,154.038 271.302 C 154.175 271.737,154.522 271.997,154.814 271.885 C 155.104 271.773,155.449 271.962,155.580 272.305 C 155.712 272.647,156.094 272.927,156.431 272.927 C 156.768 272.927,157.043 273.101,157.043 273.314 C 157.043 273.527,157.313 273.598,157.642 273.471 C 157.972 273.345,158.242 273.451,158.242 273.707 C 158.242 273.963,158.434 274.054,158.668 273.909 C 158.904 273.764,159.195 274.031,159.320 274.508 C 159.456 275.027,159.763 275.286,160.092 275.160 C 160.393 275.045,160.639 275.105,160.639 275.294 C 160.639 275.483,161.089 275.750,161.638 275.888 C 162.188 276.026,162.637 276.291,162.637 276.476 C 162.637 276.661,163.087 276.726,163.636 276.621 C 164.369 276.481,164.635 276.603,164.635 277.076 C 164.635 277.456,164.965 277.722,165.435 277.722 C 165.874 277.722,166.234 277.913,166.234 278.145 C 166.234 278.378,166.434 278.445,166.678 278.294 C 166.922 278.143,167.263 278.247,167.435 278.525 C 167.607 278.804,168.306 279.052,168.988 279.076 C 169.935 279.110,170.236 279.310,170.260 279.920 C 170.278 280.360,170.384 280.495,170.494 280.220 C 170.740 279.611,171.828 279.552,171.828 280.147 C 171.828 280.391,172.169 280.465,172.627 280.320 C 173.104 280.169,173.427 280.248,173.427 280.516 C 173.427 280.764,173.606 280.855,173.826 280.719 C 174.046 280.583,174.226 280.663,174.226 280.895 C 174.226 281.128,174.746 281.319,175.382 281.319 C 176.107 281.319,176.636 281.575,176.802 282.007 C 177.029 282.600,177.122 282.614,177.474 282.107 C 177.783 281.662,177.933 281.640,178.085 282.017 C 178.211 282.326,178.657 282.424,179.254 282.274 C 179.939 282.102,180.220 282.198,180.220 282.605 C 180.220 283.015,180.562 283.128,181.419 283.002 C 182.124 282.899,182.617 283.005,182.617 283.261 C 182.617 283.532,183.072 283.605,183.816 283.457 C 184.617 283.296,185.015 283.376,185.015 283.698 C 185.015 284.025,185.400 284.095,186.214 283.916 C 186.993 283.745,187.413 283.811,187.413 284.104 C 187.413 284.392,188.146 284.522,189.442 284.462 C 190.744 284.403,191.584 284.552,191.786 284.880 C 192.021 285.259,192.782 285.317,194.752 285.106 C 196.607 284.907,197.403 284.956,197.403 285.268 C 197.403 285.551,198.354 285.714,200.000 285.714 C 201.465 285.714,202.597 285.540,202.597 285.315 C 202.597 285.095,203.227 284.915,203.996 284.915 C 204.765 284.915,205.395 285.064,205.395 285.245 C 205.395 285.710,207.933 285.296,208.266 284.778 C 208.417 284.543,209.386 284.404,210.420 284.467 C 211.660 284.543,212.412 284.401,212.631 284.050 C 212.902 283.615,213.114 283.610,213.783 284.025 C 214.475 284.454,214.642 284.433,214.850 283.891 C 215.038 283.401,215.415 283.308,216.439 283.501 C 217.268 283.656,217.782 283.592,217.782 283.335 C 217.782 283.105,218.412 282.917,219.181 282.917 C 219.950 282.917,220.579 282.723,220.579 282.486 C 220.579 282.214,221.024 282.152,221.778 282.318 C 222.566 282.491,222.977 282.424,222.977 282.123 C 222.977 281.846,223.294 281.765,223.776 281.918 C 224.235 282.064,224.575 281.990,224.575 281.745 C 224.575 281.511,224.935 281.319,225.375 281.319 C 225.814 281.319,226.174 281.156,226.174 280.956 C 226.174 280.757,226.533 280.688,226.973 280.803 C 227.440 280.925,227.772 280.816,227.772 280.539 C 227.772 280.248,228.079 280.164,228.571 280.320 C 229.063 280.476,229.371 280.391,229.371 280.100 C 229.371 279.824,229.703 279.714,230.170 279.836 C 230.669 279.967,230.969 279.848,230.969 279.520 C 230.969 279.193,231.269 279.074,231.768 279.205 C 232.233 279.326,232.567 279.217,232.567 278.944 C 232.567 278.686,232.747 278.585,232.967 278.721 C 233.187 278.857,233.367 278.757,233.367 278.498 C 233.367 278.228,233.700 278.116,234.152 278.234 C 234.644 278.363,235.332 278.073,235.997 277.457 C 236.580 276.916,237.306 276.570,237.610 276.686 C 237.913 276.803,238.162 276.763,238.162 276.599 C 238.162 276.280,240.554 275.185,241.059 275.273 C 241.224 275.301,241.359 275.145,241.359 274.925 C 241.359 274.705,241.634 274.525,241.971 274.525 C 242.307 274.525,242.681 274.268,242.802 273.954 C 242.922 273.640,243.546 273.199,244.188 272.976 C 244.830 272.752,245.355 272.361,245.355 272.106 C 245.355 271.851,245.592 271.734,245.883 271.845 C 246.173 271.957,246.624 271.707,246.885 271.290 C 247.145 270.873,247.495 270.576,247.663 270.630 C 247.957 270.726,248.564 270.293,250.149 268.861 C 250.608 268.446,251.230 268.280,251.786 268.426 C 252.490 268.610,252.630 268.524,252.439 268.026 C 252.159 267.296,253.107 266.338,253.729 266.722 C 253.958 266.864,254.146 266.804,254.146 266.588 C 254.146 265.797,256.186 263.778,256.762 263.999 C 257.118 264.135,257.343 263.978,257.343 263.592 C 257.343 263.196,257.566 263.048,257.942 263.192 C 258.286 263.324,258.561 263.191,258.588 262.880 C 258.613 262.582,258.658 262.071,258.687 261.745 C 258.717 261.419,259.101 261.088,259.540 261.009 C 260.448 260.846,262.214 259.151,261.853 258.789 C 261.582 258.518,264.404 255.744,264.951 255.744 C 265.148 255.744,265.206 255.475,265.080 255.145 C 264.953 254.815,265.043 254.545,265.279 254.545 C 265.516 254.545,265.607 254.280,265.483 253.955 C 265.339 253.580,265.626 253.197,266.274 252.902 C 266.834 252.647,267.346 252.058,267.412 251.594 C 267.478 251.129,267.940 250.571,268.437 250.352 C 268.935 250.134,269.257 249.736,269.155 249.468 C 269.052 249.200,269.403 248.638,269.935 248.220 C 270.467 247.801,270.789 247.346,270.652 247.208 C 270.514 247.071,270.762 246.642,271.202 246.256 C 271.642 245.870,271.916 245.301,271.811 244.991 C 271.679 244.603,271.823 244.506,272.273 244.679 C 272.633 244.817,272.927 244.756,272.927 244.543 C 272.927 244.330,272.747 244.156,272.527 244.156 C 271.774 244.156,272.128 243.485,273.119 243.033 C 273.766 242.739,274.029 242.369,273.875 241.970 C 273.746 241.634,273.850 241.359,274.107 241.359 C 274.363 241.359,274.478 241.206,274.363 241.020 C 274.248 240.833,274.467 240.339,274.851 239.921 C 275.234 239.503,275.482 238.833,275.401 238.433 C 275.306 237.960,275.545 237.630,276.085 237.489 C 276.541 237.369,276.828 237.133,276.724 236.964 C 276.453 236.526,277.328 234.166,277.761 234.166 C 277.960 234.166,278.122 233.896,278.122 233.566 C 278.122 233.237,278.296 232.967,278.509 232.967 C 278.722 232.967,278.796 232.707,278.674 232.388 C 278.450 231.805,279.656 229.371,280.169 229.371 C 280.320 229.371,280.343 228.981,280.218 228.504 C 280.038 227.817,280.129 227.690,280.655 227.892 C 281.020 228.032,281.319 227.973,281.319 227.760 C 281.319 227.547,281.139 227.373,280.919 227.373 C 280.699 227.373,280.519 227.103,280.519 226.773 C 280.519 226.444,280.719 226.174,280.962 226.174 C 281.205 226.174,281.294 225.887,281.160 225.537 C 280.997 225.113,281.182 224.831,281.717 224.692 C 282.534 224.478,282.842 223.776,282.118 223.776 C 281.898 223.776,281.718 223.506,281.718 223.177 C 281.718 222.847,281.902 222.577,282.125 222.577 C 282.360 222.577,282.427 222.155,282.282 221.578 C 282.117 220.920,282.198 220.579,282.521 220.579 C 282.814 220.579,282.926 220.258,282.801 219.780 C 282.686 219.341,282.755 218.981,282.954 218.981 C 283.154 218.981,283.317 218.281,283.317 217.425 C 283.317 216.342,283.519 215.792,283.983 215.614 C 284.491 215.419,284.538 215.247,284.183 214.892 C 283.586 214.295,283.574 212.587,284.167 212.587 C 284.477 212.587,284.536 211.969,284.357 210.619 C 284.198 209.420,284.256 208.552,284.506 208.398 C 284.731 208.259,284.915 207.346,284.915 206.370 C 284.915 205.256,285.094 204.595,285.395 204.595 C 285.768 204.595,285.768 204.489,285.395 204.116 C 285.072 203.793,284.915 201.972,284.915 198.545 C 284.915 195.745,284.744 193.348,284.536 193.219 C 284.325 193.089,284.261 192.100,284.391 190.998 C 284.565 189.534,284.493 189.011,284.119 189.011 C 283.762 189.011,283.679 188.596,283.839 187.612 C 283.979 186.745,283.903 186.214,283.639 186.214 C 283.375 186.214,283.298 185.684,283.438 184.823 C 283.562 184.057,283.496 183.327,283.290 183.201 C 283.085 183.074,282.917 182.621,282.917 182.194 C 282.917 181.768,282.715 181.419,282.468 181.419 C 282.181 181.419,282.105 180.983,282.258 180.220 C 282.407 179.474,282.333 179.021,282.061 179.021 C 281.812 179.021,281.707 178.594,281.816 178.022 C 281.921 177.473,281.852 177.023,281.663 177.023 C 281.474 177.023,281.319 176.573,281.319 176.024 C 281.319 175.475,281.127 175.025,280.892 175.025 C 280.647 175.025,280.574 174.684,280.719 174.226 C 280.875 173.734,280.791 173.427,280.500 173.427 C 280.223 173.427,280.114 173.094,280.236 172.627 C 280.351 172.188,280.282 171.828,280.082 171.828 C 279.883 171.828,279.720 171.558,279.720 171.229 C 279.720 170.899,279.521 170.629,279.278 170.629 C 279.035 170.629,278.939 170.360,279.066 170.030 C 279.192 169.700,279.109 169.431,278.881 169.431 C 278.653 169.431,278.527 169.026,278.601 168.531 C 278.679 168.006,278.406 167.332,277.942 166.911 C 277.267 166.296,277.236 166.133,277.735 165.818 C 278.228 165.506,278.211 165.446,277.630 165.441 C 277.228 165.437,276.833 165.016,276.688 164.436 C 276.550 163.886,276.254 163.437,276.032 163.437 C 275.809 163.437,275.873 163.132,276.175 162.760 C 276.589 162.250,276.596 162.161,276.203 162.397 C 275.844 162.613,275.537 162.326,275.216 161.475 C 274.960 160.796,274.599 160.240,274.414 160.240 C 274.230 160.240,274.182 160.072,274.309 159.868 C 274.435 159.663,274.364 159.388,274.150 159.256 C 273.936 159.123,273.853 158.775,273.966 158.481 C 274.088 158.165,273.795 157.835,273.249 157.672 C 272.359 157.405,272.355 157.384,273.127 157.048 C 273.877 156.721,273.868 156.698,272.984 156.671 C 272.306 156.651,272.108 156.471,272.278 156.029 C 272.412 155.679,272.259 155.316,271.921 155.187 C 271.595 155.062,271.329 154.703,271.329 154.390 C 271.329 154.077,271.049 153.714,270.706 153.582 C 270.364 153.451,270.170 153.119,270.275 152.845 C 270.380 152.571,270.013 152.141,269.460 151.889 C 268.873 151.621,268.539 151.205,268.660 150.890 C 268.777 150.586,268.444 150.124,267.895 149.831 C 267.221 149.470,266.995 149.087,267.155 148.581 C 267.305 148.110,267.187 147.852,266.822 147.852 C 266.093 147.852,264.788 146.415,265.083 145.938 C 265.208 145.736,264.854 145.364,264.297 145.110 C 263.537 144.764,263.348 144.451,263.538 143.853 C 263.745 143.199,263.624 143.075,262.864 143.157 C 262.263 143.222,261.938 143.046,261.938 142.657 C 261.938 141.545,258.372 137.799,257.596 138.097 C 257.252 138.229,256.696 137.756,256.144 136.863 C 255.599 135.981,255.034 135.498,254.698 135.627 C 254.391 135.745,253.868 135.413,253.517 134.876 C 253.170 134.347,252.663 134.000,252.389 134.105 C 252.115 134.211,251.675 133.822,251.411 133.243 C 251.127 132.621,250.709 132.274,250.390 132.397 C 250.075 132.518,249.659 132.185,249.391 131.598 C 249.100 130.958,248.717 130.674,248.342 130.817 C 248.018 130.942,247.752 130.870,247.752 130.657 C 247.752 130.444,247.477 130.270,247.140 130.270 C 246.804 130.270,246.425 130.001,246.299 129.673 C 246.173 129.344,245.911 129.174,245.717 129.293 C 245.388 129.497,244.996 129.254,243.543 127.943 C 243.221 127.653,242.957 127.540,242.957 127.693 C 242.957 127.845,242.716 127.770,242.421 127.525 C 242.126 127.280,241.740 127.213,241.563 127.376 C 241.386 127.539,241.336 127.283,241.453 126.808 C 241.639 126.049,241.523 125.962,240.494 126.092 C 239.730 126.189,239.245 126.038,239.099 125.658 C 238.976 125.337,238.625 125.075,238.319 125.075 C 238.013 125.075,237.762 124.912,237.762 124.713 C 237.762 124.514,237.403 124.445,236.963 124.560 C 236.523 124.674,236.164 124.573,236.164 124.335 C 236.164 124.096,235.894 124.005,235.564 124.131 C 235.235 124.258,234.965 124.176,234.965 123.951 C 234.965 123.725,234.426 123.422,233.766 123.277 C 233.107 123.132,232.567 122.854,232.567 122.658 C 232.567 122.463,232.298 122.406,231.968 122.533 C 231.638 122.659,231.369 122.564,231.369 122.320 C 231.369 122.077,231.099 121.878,230.769 121.878 C 230.440 121.878,230.170 121.715,230.170 121.516 C 230.170 121.317,229.810 121.248,229.371 121.363 C 228.893 121.488,228.571 121.375,228.571 121.083 C 228.571 120.812,228.304 120.697,227.972 120.824 C 227.642 120.950,227.373 120.859,227.373 120.620 C 227.373 120.382,227.013 120.281,226.573 120.396 C 226.059 120.530,225.774 120.408,225.774 120.052 C 225.774 119.652,225.445 119.566,224.575 119.740 C 223.762 119.903,223.377 119.822,223.377 119.487 C 223.377 119.161,223.039 119.079,222.378 119.245 C 221.754 119.401,221.379 119.326,221.379 119.045 C 221.379 118.764,221.003 118.689,220.380 118.845 C 219.804 118.990,219.381 118.924,219.381 118.689 C 219.381 118.465,218.661 118.282,217.782 118.282 C 216.872 118.282,216.184 118.090,216.184 117.836 C 216.184 117.570,215.761 117.470,215.140 117.589 C 214.566 117.699,213.637 117.550,213.074 117.258 C 212.385 116.901,211.822 116.851,211.347 117.105 C 210.419 117.602,208.991 117.588,208.991 117.083 C 208.991 116.863,208.646 116.683,208.225 116.683 C 207.804 116.683,207.369 116.459,207.258 116.184 C 207.099 115.791,207.049 115.794,207.025 116.195 M204.262 131.858 C 204.423 132.328,207.476 132.444,209.323 132.051 C 210.152 131.875,211.007 131.957,211.588 132.268 C 212.102 132.543,213.093 132.684,213.791 132.581 C 214.606 132.462,215.130 132.580,215.258 132.914 C 215.389 133.254,215.856 133.352,216.620 133.200 C 217.361 133.051,217.782 133.133,217.782 133.424 C 217.782 133.712,218.152 133.789,218.781 133.631 C 219.440 133.465,219.780 133.547,219.780 133.869 C 219.780 134.162,220.101 134.275,220.579 134.150 C 221.019 134.035,221.379 134.104,221.379 134.303 C 221.379 134.502,221.673 134.665,222.034 134.665 C 222.394 134.665,222.928 134.980,223.220 135.365 C 223.544 135.792,223.756 135.869,223.764 135.564 C 223.779 134.948,224.975 134.892,224.975 135.507 C 224.975 135.751,225.245 135.846,225.574 135.720 C 225.904 135.593,226.174 135.664,226.174 135.877 C 226.174 136.090,226.553 136.264,227.016 136.264 C 227.600 136.264,227.787 136.447,227.628 136.863 C 227.501 137.193,227.557 137.463,227.751 137.463 C 227.946 137.463,228.180 137.239,228.271 136.967 C 228.388 136.614,228.646 136.681,229.163 137.197 C 229.562 137.597,230.222 137.837,230.629 137.731 C 231.084 137.612,231.369 137.749,231.369 138.087 C 231.369 138.436,231.612 138.543,232.037 138.380 C 232.544 138.185,232.644 138.285,232.450 138.792 C 232.308 139.160,232.352 139.461,232.547 139.461 C 232.741 139.461,232.965 139.267,233.043 139.032 C 233.122 138.795,233.646 139.028,234.211 139.552 C 234.775 140.075,235.464 140.426,235.742 140.334 C 236.094 140.216,236.166 140.422,235.979 141.012 C 235.828 141.486,235.885 141.858,236.108 141.858 C 236.326 141.858,236.580 141.543,236.671 141.159 C 236.799 140.621,236.950 140.734,237.323 141.645 C 237.710 142.590,237.883 142.711,238.179 142.244 C 238.470 141.784,238.551 141.774,238.555 142.201 C 238.559 142.516,238.811 142.647,239.157 142.514 C 239.559 142.360,239.835 142.616,240.008 143.304 C 240.193 144.043,240.464 144.269,240.997 144.130 C 241.464 144.008,241.813 144.197,241.956 144.650 C 242.081 145.041,242.481 145.338,242.846 145.308 C 243.211 145.279,243.700 145.614,243.933 146.054 C 244.880 147.843,245.029 147.979,245.397 147.395 C 245.662 146.975,245.972 147.122,246.774 148.052 C 247.343 148.711,248.426 149.940,249.179 150.782 C 249.933 151.624,250.549 152.478,250.549 152.680 C 250.549 152.882,250.750 153.047,250.996 153.047 C 251.940 153.047,254.346 155.598,254.346 156.599 C 254.346 157.336,254.609 157.663,255.345 157.839 C 255.894 157.970,256.344 158.340,256.344 158.659 C 256.344 158.979,256.748 159.471,257.243 159.753 C 258.244 160.324,258.398 160.869,257.642 161.174 C 257.326 161.302,257.382 161.387,257.796 161.407 C 258.426 161.437,260.066 163.437,259.461 163.437 C 259.297 163.437,259.565 163.719,260.058 164.063 C 260.550 164.408,260.858 164.842,260.743 165.028 C 260.629 165.214,260.760 165.458,261.036 165.570 C 261.416 165.724,261.393 165.877,260.939 166.197 C 260.421 166.564,260.433 166.622,261.031 166.627 C 261.433 166.631,261.828 167.052,261.974 167.632 C 262.112 168.182,262.360 168.631,262.526 168.631 C 262.692 168.631,263.152 169.664,263.549 170.925 C 263.946 172.187,264.510 173.458,264.803 173.751 C 265.095 174.043,265.335 174.630,265.335 175.054 C 265.335 175.477,265.527 175.824,265.761 175.824 C 266.006 175.824,266.080 176.165,265.934 176.623 C 265.782 177.102,265.862 177.423,266.134 177.423 C 266.405 177.423,266.486 177.743,266.334 178.222 C 266.188 178.680,266.262 179.021,266.507 179.021 C 266.741 179.021,266.933 179.460,266.933 179.996 C 266.933 180.533,267.105 181.078,267.315 181.208 C 267.525 181.338,267.596 181.708,267.472 182.031 C 267.348 182.353,267.446 182.617,267.690 182.617 C 267.933 182.617,268.132 182.887,268.132 183.217 C 268.132 183.546,267.952 183.816,267.732 183.816 C 267.512 183.816,267.333 183.996,267.333 184.216 C 267.333 184.436,267.602 184.615,267.932 184.615 C 268.332 184.615,268.531 185.015,268.531 185.814 C 268.531 186.474,268.352 187.013,268.132 187.013 C 267.417 187.013,267.711 187.713,268.513 187.923 C 269.166 188.094,269.256 188.365,269.060 189.568 C 268.907 190.511,268.983 191.009,269.278 191.009 C 269.852 191.009,269.870 192.707,269.303 193.275 C 268.814 193.763,269.217 196.603,269.775 196.603 C 270.272 196.603,270.227 204.097,269.728 204.263 C 269.253 204.421,269.147 207.053,269.542 208.891 C 269.739 209.810,269.676 210.190,269.324 210.190 C 268.976 210.190,268.897 210.623,269.060 211.631 C 269.256 212.834,269.166 213.105,268.513 213.276 C 267.711 213.485,267.417 214.186,268.132 214.186 C 268.790 214.186,268.583 215.679,267.887 215.946 C 267.359 216.149,267.334 216.303,267.747 216.800 C 268.160 217.299,268.122 217.502,267.531 217.934 C 266.975 218.340,266.929 218.531,267.326 218.777 C 267.705 219.011,267.590 219.234,266.887 219.623 C 266.363 219.914,266.159 220.158,266.434 220.166 C 267.152 220.186,267.054 221.778,266.334 221.778 C 266.004 221.778,265.734 221.958,265.734 222.178 C 265.734 222.398,265.959 222.580,266.234 222.584 C 266.591 222.588,266.574 222.690,266.176 222.943 C 265.869 223.137,265.728 223.584,265.863 223.936 C 265.998 224.288,265.935 224.575,265.722 224.575 C 265.509 224.575,265.335 224.935,265.335 225.375 C 265.335 225.814,265.172 226.174,264.972 226.174 C 264.773 226.174,264.704 226.533,264.819 226.973 C 264.972 227.556,264.826 227.781,264.282 227.804 C 263.861 227.822,263.754 227.923,264.036 228.037 C 264.311 228.148,264.535 228.423,264.535 228.647 C 264.535 228.872,264.311 228.970,264.036 228.865 C 263.726 228.746,263.513 229.053,263.476 229.674 C 263.442 230.224,263.202 230.805,262.942 230.966 C 262.682 231.127,262.445 231.418,262.415 231.613 C 262.386 231.808,262.131 231.915,261.850 231.851 C 261.569 231.786,261.339 231.932,261.339 232.174 C 261.339 232.416,261.506 232.511,261.711 232.385 C 261.915 232.258,262.196 232.338,262.334 232.561 C 262.472 232.784,262.310 232.967,261.974 232.967 C 261.621 232.967,261.452 233.198,261.574 233.515 C 261.690 233.816,261.521 234.164,261.200 234.287 C 260.878 234.410,260.494 235.063,260.346 235.737 C 260.188 236.453,259.822 236.963,259.466 236.963 C 259.088 236.963,258.943 237.191,259.086 237.562 C 259.212 237.892,259.141 238.162,258.929 238.162 C 258.716 238.162,258.541 238.437,258.541 238.774 C 258.541 239.111,258.137 239.549,257.642 239.748 C 257.148 239.947,256.968 240.121,257.243 240.135 C 258.143 240.180,257.765 240.938,256.710 241.203 C 255.933 241.398,255.728 241.654,255.882 242.241 C 256.027 242.795,255.923 242.958,255.521 242.804 C 254.906 242.568,253.966 243.942,254.335 244.538 C 254.592 244.955,252.135 246.953,251.364 246.953 C 251.062 246.953,250.936 247.260,251.054 247.712 C 251.282 248.584,246.641 253.709,245.860 253.448 C 245.071 253.185,243.818 254.102,243.684 255.040 C 243.612 255.546,243.078 256.165,242.458 256.462 C 241.853 256.750,241.359 257.160,241.359 257.372 C 241.359 257.584,240.929 257.650,240.403 257.518 C 239.837 257.376,239.324 257.479,239.143 257.772 C 238.946 258.089,239.002 258.164,239.299 257.980 C 239.565 257.816,239.760 257.935,239.760 258.263 C 239.760 258.653,239.447 258.770,238.755 258.638 C 237.953 258.485,237.801 258.577,238.000 259.095 C 238.187 259.583,237.941 259.804,237.006 259.991 C 236.287 260.135,235.764 260.489,235.764 260.832 C 235.764 261.194,235.531 261.335,235.165 261.194 C 234.835 261.068,234.565 261.138,234.565 261.351 C 234.565 261.564,234.206 261.738,233.766 261.738 C 233.325 261.738,232.967 262.005,232.967 262.333 C 232.967 262.718,232.403 263.018,231.369 263.183 C 230.362 263.344,229.770 263.652,229.770 264.014 C 229.770 264.407,229.518 264.509,228.971 264.336 C 228.477 264.179,228.172 264.264,228.172 264.557 C 228.172 264.896,227.978 264.875,227.498 264.484 C 226.908 264.005,226.856 264.023,227.081 264.623 C 227.222 265.000,227.166 265.415,226.956 265.545 C 226.745 265.675,226.573 265.591,226.573 265.358 C 226.573 265.125,226.399 264.935,226.186 264.935 C 225.973 264.935,225.903 265.205,226.029 265.534 C 226.175 265.914,226.024 266.134,225.617 266.134 C 225.264 266.134,224.975 265.954,224.975 265.734 C 224.975 265.514,224.801 265.335,224.588 265.335 C 224.375 265.335,224.304 265.604,224.431 265.934 C 224.573 266.305,224.429 266.533,224.052 266.533 C 223.717 266.533,223.353 266.309,223.242 266.034 C 223.131 265.759,223.026 265.933,223.009 266.421 C 222.986 267.064,222.801 267.240,222.337 267.062 C 221.985 266.927,221.550 267.056,221.369 267.349 C 221.099 267.786,220.928 267.788,220.415 267.362 C 219.893 266.929,219.747 266.954,219.531 267.517 C 219.351 267.985,218.994 268.121,218.361 267.962 C 217.821 267.827,217.354 267.937,217.216 268.232 C 217.034 268.622,216.933 268.624,216.754 268.244 C 216.589 267.893,216.293 267.971,215.702 268.523 C 215.119 269.065,214.544 269.222,213.733 269.060 C 213.015 268.917,212.587 268.999,212.587 269.281 C 212.587 269.851,211.104 269.875,210.915 269.308 C 210.724 268.735,209.391 269.284,209.391 269.935 C 209.391 270.258,209.088 270.375,208.591 270.246 C 208.152 270.131,207.792 269.842,207.792 269.604 C 207.792 269.319,207.628 269.335,207.313 269.650 C 207.049 269.914,206.330 270.130,205.714 270.130 C 205.099 270.130,204.595 270.310,204.595 270.529 C 204.595 270.768,203.064 270.929,200.799 270.929 C 198.535 270.929,197.003 270.768,197.003 270.529 C 197.003 270.310,196.500 270.130,195.884 270.130 C 195.269 270.130,194.549 269.914,194.286 269.650 C 193.913 269.277,193.806 269.277,193.806 269.650 C 193.806 270.322,192.669 270.248,191.951 269.530 C 191.263 268.843,190.609 268.746,190.609 269.331 C 190.609 269.955,188.951 269.800,188.182 269.104 C 187.605 268.581,187.353 268.562,186.671 268.988 C 185.960 269.432,185.747 269.376,185.035 268.554 C 184.584 268.035,184.216 267.817,184.216 268.071 C 184.216 268.324,183.946 268.531,183.616 268.531 C 183.287 268.531,183.017 268.368,183.017 268.169 C 183.017 267.970,182.657 267.901,182.218 268.016 C 181.661 268.162,181.419 268.028,181.419 267.576 C 181.419 267.022,181.293 267.000,180.567 267.429 C 179.887 267.831,179.679 267.832,179.535 267.433 C 179.435 267.158,179.099 266.933,178.788 266.933 C 178.477 266.933,178.208 266.618,178.190 266.234 C 178.171 265.816,178.078 265.736,177.957 266.034 C 177.663 266.762,176.623 266.646,176.623 265.885 C 176.623 265.363,176.510 265.331,176.041 265.720 C 175.580 266.103,175.271 266.071,174.554 265.569 C 174.056 265.220,173.309 264.935,172.895 264.935 C 172.390 264.935,172.218 264.738,172.372 264.336 C 172.499 264.006,172.428 263.736,172.215 263.736 C 172.002 263.736,171.828 263.908,171.828 264.117 C 171.828 264.522,169.324 263.346,169.097 262.835 C 169.023 262.668,168.798 262.634,168.597 262.758 C 168.396 262.883,168.232 262.808,168.232 262.593 C 168.232 262.378,167.703 262.085,167.056 261.943 C 166.167 261.748,165.941 261.521,166.132 261.012 C 166.351 260.426,166.297 260.410,165.709 260.888 C 165.125 261.363,165.035 261.344,165.035 260.742 C 165.035 260.243,164.809 260.106,164.236 260.256 C 163.624 260.416,163.429 260.262,163.405 259.603 C 163.388 259.129,163.283 258.966,163.172 259.241 C 162.868 259.994,162.324 259.841,162.031 258.920 C 161.839 258.315,161.639 258.209,161.268 258.517 C 160.894 258.827,160.643 258.668,160.293 257.900 C 160.016 257.292,159.599 256.950,159.281 257.072 C 158.966 257.193,158.550 256.860,158.282 256.273 C 158.011 255.677,157.600 255.352,157.276 255.476 C 156.626 255.726,155.045 254.162,155.045 253.270 C 155.045 252.424,153.993 251.606,153.264 251.886 C 152.889 252.030,151.940 251.348,150.682 250.033 C 149.588 248.888,148.864 247.892,149.072 247.819 C 149.635 247.621,149.530 246.953,148.936 246.953 C 148.261 246.953,145.503 244.593,146.154 244.572 C 147.088 244.541,146.658 243.716,145.498 243.312 C 144.629 243.009,144.393 242.717,144.546 242.134 C 144.682 241.612,144.545 241.359,144.126 241.359 C 143.254 241.359,142.843 240.540,143.505 240.121 C 143.918 239.860,143.840 239.771,143.194 239.766 C 142.530 239.762,142.381 239.577,142.542 238.961 C 142.688 238.402,142.554 238.162,142.095 238.162 C 141.685 238.162,141.348 237.711,141.199 236.963 C 141.067 236.304,140.712 235.764,140.410 235.764 C 140.107 235.764,139.860 235.503,139.860 235.185 C 139.860 234.866,139.547 234.430,139.164 234.216 C 138.781 234.001,138.593 233.701,138.746 233.549 C 138.898 233.396,138.762 233.010,138.443 232.691 C 137.772 232.020,137.683 231.369,138.262 231.369 C 138.482 231.369,138.661 231.177,138.661 230.942 C 138.661 230.697,138.321 230.624,137.862 230.769 C 137.404 230.915,137.063 230.841,137.063 230.596 C 137.063 230.362,137.288 230.164,137.562 230.157 C 137.838 230.150,137.704 229.874,137.265 229.542 C 136.578 229.023,136.550 228.884,137.065 228.539 C 137.559 228.208,137.532 228.159,136.905 228.255 C 136.325 228.345,136.135 228.110,136.092 227.249 C 136.061 226.632,135.791 225.976,135.492 225.791 C 135.193 225.606,135.059 225.167,135.194 224.816 C 135.329 224.464,135.246 224.176,135.010 224.176 C 134.773 224.176,134.686 223.899,134.816 223.561 C 134.945 223.223,134.805 222.852,134.503 222.736 C 134.188 222.615,134.041 222.196,134.157 221.752 C 134.268 221.327,134.158 220.979,133.913 220.979 C 133.295 220.979,133.348 219.783,133.966 219.768 C 134.271 219.760,134.193 219.548,133.766 219.224 C 133.382 218.932,133.067 218.398,133.067 218.038 C 133.067 217.677,132.884 217.383,132.660 217.383 C 132.425 217.383,132.359 216.960,132.503 216.384 C 132.658 215.768,132.584 215.385,132.311 215.385 C 132.067 215.385,131.868 215.025,131.868 214.585 C 131.868 214.146,132.048 213.786,132.268 213.786 C 132.865 213.786,132.750 213.127,132.026 212.403 C 131.561 211.938,131.456 211.381,131.644 210.376 C 131.850 209.281,131.775 208.991,131.287 208.991 C 130.567 208.991,130.522 208.631,131.063 207.208 C 131.688 205.565,131.844 204.228,131.441 203.979 C 130.952 203.677,130.958 196.475,131.447 195.984 C 131.686 195.745,131.587 194.880,131.181 193.649 C 130.580 191.826,130.583 191.661,131.221 191.194 C 131.723 190.828,131.831 190.400,131.628 189.591 C 131.424 188.781,131.533 188.354,132.035 187.986 C 132.617 187.561,132.642 187.362,132.204 186.660 C 131.760 185.949,131.796 185.755,132.462 185.268 C 133.119 184.788,133.156 184.604,132.707 184.063 C 132.251 183.515,132.310 183.371,133.121 183.046 C 133.641 182.838,133.841 182.657,133.566 182.643 C 132.966 182.612,132.886 181.419,133.485 181.419 C 133.749 181.419,133.802 180.882,133.628 179.956 C 133.393 178.702,133.447 178.528,134.009 178.744 C 134.761 179.033,134.907 178.223,134.226 177.542 C 133.905 177.222,134.015 177.030,134.626 176.836 C 135.371 176.599,135.399 176.501,134.872 175.974 C 134.251 175.353,135.036 173.427,135.910 173.427 C 136.105 173.427,136.264 173.157,136.264 172.827 C 136.264 172.498,136.578 172.214,136.963 172.196 C 137.381 172.177,137.461 172.084,137.163 171.963 C 136.888 171.852,136.663 171.398,136.663 170.953 C 136.663 170.398,136.852 170.217,137.263 170.374 C 137.592 170.501,137.862 170.445,137.862 170.251 C 137.862 170.056,137.645 169.824,137.379 169.736 C 136.892 169.573,137.035 169.329,138.661 167.547 C 138.991 167.186,139.261 166.758,139.261 166.595 C 139.261 166.433,139.396 166.166,139.560 166.001 C 139.725 165.836,139.860 165.377,139.860 164.981 C 139.860 164.474,140.057 164.336,140.523 164.515 C 141.076 164.728,141.147 164.574,140.948 163.584 C 140.767 162.678,140.894 162.284,141.485 161.915 C 141.910 161.649,142.258 161.194,142.258 160.903 C 142.258 160.613,142.714 160.131,143.271 159.833 C 143.828 159.535,144.194 159.056,144.084 158.770 C 143.966 158.462,144.275 158.152,144.843 158.009 C 145.453 157.856,145.723 157.565,145.585 157.206 C 145.466 156.897,145.524 156.643,145.714 156.643 C 145.903 156.643,146.310 156.076,146.616 155.383 C 147.139 154.202,147.208 154.170,147.713 154.860 C 148.195 155.519,148.252 155.526,148.252 154.922 C 148.252 154.550,148.543 154.246,148.900 154.246 C 149.394 154.246,149.443 154.119,149.108 153.715 C 148.500 152.983,153.287 148.147,154.300 148.469 C 154.792 148.625,155.021 148.428,155.115 147.770 C 155.214 147.068,155.490 146.862,156.290 146.892 C 157.083 146.921,157.293 146.768,157.160 146.258 C 157.036 145.783,157.223 145.595,157.796 145.619 C 158.243 145.639,158.631 145.475,158.659 145.255 C 158.763 144.428,159.553 143.792,159.860 144.288 C 160.238 144.899,161.065 144.390,160.804 143.708 C 160.693 143.420,160.881 142.954,161.221 142.672 C 161.639 142.325,161.838 142.304,161.838 142.608 C 161.838 142.855,162.012 143.057,162.225 143.057 C 162.438 143.057,162.505 142.776,162.373 142.434 C 162.213 142.017,162.417 141.737,162.985 141.588 C 163.453 141.465,163.836 141.196,163.836 140.989 C 163.836 140.782,164.025 140.729,164.255 140.871 C 164.485 141.013,165.140 140.663,165.710 140.093 C 166.520 139.283,166.867 139.157,167.298 139.515 C 167.743 139.884,167.796 139.832,167.572 139.248 C 167.355 138.682,167.441 138.579,167.963 138.779 C 168.330 138.920,168.631 138.848,168.631 138.619 C 168.631 138.390,168.946 138.265,169.331 138.340 C 169.715 138.415,170.350 138.203,170.742 137.869 C 171.134 137.536,171.545 137.314,171.656 137.377 C 171.766 137.440,172.133 137.215,172.470 136.877 C 172.808 136.540,173.420 136.264,173.831 136.264 C 174.242 136.264,174.691 136.081,174.829 135.858 C 174.967 135.634,175.248 135.555,175.452 135.681 C 175.657 135.808,175.824 135.721,175.824 135.488 C 175.824 135.255,176.094 135.065,176.424 135.065 C 176.753 135.065,177.023 135.245,177.023 135.465 C 177.023 135.684,177.197 135.864,177.410 135.864 C 177.623 135.864,177.703 135.619,177.588 135.319 C 177.440 134.933,177.877 134.695,179.087 134.501 C 180.027 134.351,180.930 134.012,181.095 133.747 C 181.327 133.375,181.577 133.380,182.206 133.770 C 182.885 134.191,183.017 134.174,183.017 133.670 C 183.017 132.952,184.870 132.831,185.104 133.533 C 185.200 133.822,185.574 133.661,186.086 133.112 C 186.849 132.293,186.963 132.275,187.562 132.874 C 187.920 133.231,188.212 133.331,188.212 133.095 C 188.212 132.860,188.482 132.667,188.811 132.667 C 189.141 132.667,189.411 132.468,189.411 132.224 C 189.411 131.930,189.916 131.872,190.909 132.051 C 193.046 132.436,195.580 132.341,195.737 131.870 C 195.911 131.347,204.084 131.335,204.262 131.858 M204.795 154.542 C 203.916 154.632,203.075 154.922,202.926 155.187 C 202.571 155.820,194.086 155.683,193.871 155.041 C 193.787 154.787,193.496 154.906,193.179 155.323 C 192.741 155.901,192.630 158.912,192.620 170.529 C 192.612 179.912,192.467 185.015,192.208 185.015 C 191.969 185.015,191.808 186.547,191.808 188.811 C 191.808 191.076,191.969 192.607,192.208 192.607 C 192.716 192.607,192.751 202.079,192.243 202.264 C 192.036 202.340,191.886 206.877,191.896 212.787 C 191.939 238.611,192.028 245.754,192.308 245.754 C 192.473 245.754,192.607 246.559,192.607 247.542 L 192.607 249.331 193.906 249.078 C 194.620 248.939,195.329 248.635,195.482 248.402 C 195.664 248.123,196.301 248.269,197.357 248.832 C 198.236 249.302,199.011 249.522,199.078 249.323 C 199.146 249.123,201.359 248.913,203.996 248.855 C 208.204 248.764,208.862 248.657,209.366 247.977 C 209.787 247.409,209.814 247.161,209.466 247.045 C 209.205 246.958,208.991 246.272,208.991 245.521 C 208.991 244.770,208.856 244.156,208.691 244.155 C 208.526 244.155,208.392 242.013,208.392 239.395 C 208.392 236.776,208.526 234.499,208.691 234.333 C 208.856 234.168,208.991 230.646,208.991 226.507 C 208.991 221.756,209.138 218.981,209.391 218.981 C 209.610 218.981,209.790 218.531,209.790 217.982 C 209.790 217.433,209.610 216.983,209.391 216.983 C 209.148 216.983,208.991 215.251,208.991 212.587 C 208.991 209.923,209.148 208.192,209.391 208.192 C 209.610 208.192,209.790 207.832,209.790 207.393 C 209.790 206.953,209.610 206.593,209.391 206.593 C 209.165 206.593,208.991 205.453,208.991 203.972 C 208.991 202.327,209.140 201.443,209.391 201.598 C 209.617 201.738,209.790 201.403,209.790 200.823 C 209.790 200.260,209.610 199.800,209.391 199.800 C 209.139 199.800,208.991 197.134,208.991 192.602 C 208.991 187.561,208.841 185.150,208.492 184.558 C 208.092 183.881,208.092 183.676,208.492 183.531 C 209.153 183.291,209.211 174.226,208.551 174.226 C 208.263 174.226,208.184 173.570,208.322 172.328 C 208.643 169.443,208.691 160.720,208.399 158.242 C 207.980 154.682,207.833 154.240,207.085 154.313 C 206.705 154.350,205.674 154.453,204.795 154.542 M214.985 155.644 C 214.985 156.194,215.165 156.643,215.385 156.643 C 215.893 156.643,215.913 160.128,215.406 160.306 C 214.961 160.463,214.836 166.078,215.222 168.531 C 215.450 169.976,215.631 170.230,216.436 170.230 C 216.957 170.230,217.383 170.385,217.383 170.574 C 217.383 171.189,221.697 171.483,222.629 170.933 C 223.310 170.531,223.517 170.530,223.662 170.929 C 223.761 171.204,224.098 171.429,224.409 171.429 C 224.720 171.429,224.978 171.743,224.981 172.128 C 224.986 172.722,225.044 172.738,225.365 172.230 C 225.689 171.717,225.826 171.746,226.325 172.429 C 226.646 172.867,227.034 173.100,227.188 172.946 C 227.530 172.603,230.170 175.690,230.170 176.433 C 230.170 176.726,230.400 177.204,230.682 177.494 C 231.212 178.041,231.437 186.214,230.922 186.214 C 230.781 186.214,230.428 186.798,230.137 187.512 C 229.846 188.227,229.347 189.009,229.029 189.250 C 228.710 189.491,228.565 189.876,228.706 190.104 C 229.006 190.589,228.026 191.529,227.631 191.135 C 227.485 190.988,227.102 191.214,226.782 191.638 C 226.452 192.074,226.194 192.191,226.187 191.908 C 226.180 191.633,226.000 191.409,225.787 191.409 C 225.574 191.409,225.503 191.678,225.630 192.008 C 225.756 192.338,225.661 192.607,225.417 192.607 C 225.174 192.607,224.975 192.428,224.975 192.208 C 224.975 191.988,224.795 191.808,224.575 191.808 C 224.356 191.808,224.176 192.146,224.176 192.558 C 224.176 193.211,223.942 193.282,222.378 193.106 C 221.188 192.972,220.579 193.056,220.579 193.355 C 220.579 193.932,216.104 193.967,215.531 193.393 C 215.002 192.864,213.786 193.321,213.786 194.049 C 213.786 194.355,213.966 194.605,214.186 194.605 C 214.406 194.605,214.585 194.954,214.585 195.381 C 214.585 195.808,214.774 196.273,215.004 196.416 C 215.253 196.569,215.281 196.863,215.073 197.138 C 214.689 197.647,214.778 201.467,215.208 202.897 C 215.375 203.454,215.308 203.796,215.032 203.796 C 214.786 203.796,214.585 204.256,214.585 204.819 C 214.585 205.399,214.412 205.734,214.186 205.594 C 213.966 205.459,213.786 205.538,213.786 205.771 C 213.786 206.003,213.966 206.194,214.186 206.194 C 214.406 206.194,214.585 207.003,214.585 207.992 L 214.585 209.790 216.384 209.790 C 217.373 209.790,218.182 209.610,218.182 209.391 C 218.182 209.169,219.247 208.991,220.579 208.991 C 221.911 208.991,222.977 209.169,222.977 209.391 C 222.977 210.142,223.851 209.792,224.070 208.952 C 224.251 208.261,224.499 208.156,225.489 208.354 C 226.157 208.488,226.928 208.395,227.230 208.144 C 227.630 207.812,227.772 207.812,227.772 208.143 C 227.772 208.390,227.952 208.591,228.172 208.591 C 228.392 208.591,228.571 208.301,228.571 207.945 C 228.571 207.496,228.815 207.363,229.371 207.508 C 229.810 207.623,230.170 207.569,230.170 207.387 C 230.170 207.205,230.709 206.938,231.369 206.793 C 232.028 206.648,232.567 206.354,232.567 206.138 C 232.567 205.923,232.747 205.858,232.967 205.994 C 233.187 206.130,233.367 206.051,233.367 205.818 C 233.367 205.585,233.811 205.395,234.353 205.395 C 235.066 205.395,235.276 205.228,235.110 204.795 C 234.983 204.466,235.079 204.196,235.322 204.196 C 235.565 204.196,235.764 204.376,235.764 204.595 C 235.764 204.815,235.944 204.995,236.164 204.995 C 236.384 204.995,236.563 204.806,236.563 204.574 C 236.563 203.373,238.479 201.323,238.910 202.063 C 239.303 202.740,239.337 202.743,239.348 202.098 C 239.355 201.713,239.560 201.399,239.803 201.399 C 240.046 201.399,240.142 201.129,240.015 200.799 C 239.870 200.421,240.020 200.200,240.421 200.200 C 240.941 200.200,240.966 200.090,240.560 199.601 C 240.130 199.083,240.233 199.036,241.310 199.251 C 242.289 199.447,242.557 199.364,242.557 198.864 C 242.557 198.460,242.337 198.312,241.954 198.459 C 241.519 198.625,241.420 198.507,241.599 198.039 C 241.737 197.681,242.143 197.437,242.503 197.495 C 243.026 197.581,243.134 197.307,243.042 196.126 C 242.953 194.978,243.109 194.552,243.742 194.214 C 244.356 193.885,244.555 193.899,244.555 194.272 C 244.555 194.662,244.659 194.661,245.052 194.269 C 245.447 193.874,245.426 193.693,244.952 193.382 C 244.427 193.039,244.432 192.933,244.990 192.500 C 245.339 192.229,245.549 191.783,245.456 191.508 C 245.364 191.234,245.483 191.009,245.721 191.009 C 245.959 191.009,246.154 190.649,246.154 190.210 C 246.154 189.770,246.346 189.411,246.580 189.411 C 246.825 189.411,246.899 189.070,246.753 188.610 C 246.597 188.120,246.747 187.562,247.139 187.169 C 247.644 186.665,247.679 186.407,247.303 185.955 C 246.943 185.520,246.939 185.269,247.290 184.918 C 247.853 184.355,247.919 178.372,247.366 178.030 C 247.153 177.899,247.086 177.259,247.216 176.608 C 247.376 175.808,247.293 175.425,246.960 175.425 C 246.638 175.425,246.551 175.089,246.709 174.459 C 246.858 173.866,246.759 173.403,246.453 173.260 C 246.057 173.075,246.056 172.979,246.450 172.795 C 246.995 172.540,246.165 171.429,245.430 171.429 C 244.828 171.429,244.528 169.695,245.070 169.351 C 245.381 169.153,245.237 169.041,244.668 169.037 C 244.045 169.033,243.850 168.853,244.011 168.432 C 244.160 168.045,244.003 167.832,243.570 167.832 C 243.144 167.832,242.949 167.577,243.037 167.133 C 243.125 166.690,242.627 166.032,241.679 165.340 C 240.615 164.563,240.255 164.052,240.438 163.576 C 240.618 163.106,240.547 162.998,240.198 163.213 C 239.613 163.575,237.762 161.986,237.762 161.122 C 237.762 160.746,237.490 160.617,236.977 160.752 C 236.447 160.890,236.115 160.717,235.957 160.219 C 235.809 159.751,235.495 159.569,235.098 159.721 C 234.599 159.913,234.528 159.768,234.745 159.002 C 234.954 158.264,234.920 158.181,234.598 158.641 C 234.327 159.027,234.176 159.067,234.172 158.754 C 234.169 158.486,233.896 158.370,233.566 158.497 C 233.237 158.623,232.967 158.517,232.967 158.261 C 232.967 158.005,232.803 157.897,232.602 158.021 C 232.401 158.145,232.172 158.054,232.093 157.819 C 232.015 157.584,231.204 157.291,230.292 157.169 C 229.044 157.001,228.690 156.800,228.860 156.356 C 229.055 155.847,228.966 155.840,228.218 156.304 C 227.496 156.751,227.292 156.753,227.018 156.313 C 226.837 156.021,226.438 155.825,226.131 155.876 C 225.431 155.994,224.071 155.439,223.676 154.874 C 223.467 154.575,223.282 154.591,223.066 154.925 C 222.621 155.611,216.505 155.809,216.284 155.145 C 215.977 154.226,214.985 154.608,214.985 155.644 M152.248 208.415 C 152.248 208.758,152.068 208.927,151.848 208.791 C 151.622 208.651,151.449 208.987,151.449 209.567 C 151.449 210.129,151.628 210.589,151.848 210.589 C 152.070 210.589,152.248 211.655,152.248 212.987 C 152.248 214.319,152.070 215.385,151.848 215.385 C 151.045 215.385,151.409 217.679,152.248 217.898 C 153.116 218.125,153.358 219.709,152.634 220.433 C 152.162 220.905,152.530 222.178,153.139 222.178 C 153.373 222.178,153.334 222.432,153.047 222.777 C 152.640 223.268,152.667 223.377,153.198 223.377 C 153.652 223.377,153.846 223.736,153.846 224.575 C 153.846 225.235,154.048 225.774,154.295 225.774 C 154.612 225.774,154.603 225.943,154.264 226.351 C 153.880 226.815,153.948 227.030,154.615 227.446 C 155.071 227.731,155.445 228.191,155.445 228.468 C 155.445 228.745,155.593 228.971,155.775 228.971 C 155.957 228.971,156.026 229.513,155.929 230.175 C 155.778 231.201,155.858 231.338,156.467 231.105 C 157.005 230.898,157.123 230.983,156.944 231.449 C 156.788 231.855,157.040 232.220,157.674 232.509 C 158.729 232.990,158.928 233.584,158.142 233.901 C 157.852 234.018,157.945 234.116,158.364 234.134 C 159.188 234.170,162.892 237.875,163.258 239.029 C 163.429 239.566,163.730 239.721,164.270 239.550 C 164.759 239.394,165.123 239.524,165.270 239.907 C 165.397 240.238,165.756 240.411,166.067 240.292 C 166.379 240.172,166.633 240.273,166.633 240.517 C 166.633 240.760,166.876 240.959,167.172 240.959 C 167.468 240.959,168.125 241.319,168.631 241.758 C 169.138 242.198,169.975 242.557,170.491 242.557 C 171.007 242.557,171.429 242.757,171.429 243.000 C 171.429 243.243,171.698 243.339,172.028 243.212 C 172.358 243.086,172.627 243.177,172.627 243.416 C 172.627 243.661,173.055 243.768,173.613 243.661 C 174.255 243.538,174.907 243.760,175.484 244.297 C 176.079 244.851,176.421 244.963,176.529 244.638 C 176.640 244.305,177.901 244.156,180.604 244.156 C 185.233 244.156,186.004 243.722,184.644 241.882 C 183.931 240.916,183.798 240.070,183.689 235.807 C 183.574 231.326,183.481 230.789,182.714 230.168 C 182.080 229.655,181.982 229.367,182.322 229.027 C 182.663 228.686,182.662 228.571,182.321 228.571 C 182.071 228.571,181.754 228.751,181.618 228.971 C 181.173 229.692,179.024 229.447,178.989 228.671 C 178.971 228.254,178.877 228.173,178.756 228.472 C 178.398 229.361,177.758 229.006,178.036 228.072 C 178.300 227.187,178.294 227.186,177.676 227.972 C 177.325 228.419,177.043 228.551,177.036 228.272 C 177.029 227.997,176.772 227.772,176.466 227.772 C 176.160 227.772,175.802 227.491,175.670 227.147 C 175.538 226.804,175.257 226.630,175.045 226.761 C 174.615 227.026,171.856 224.236,171.839 223.519 C 171.833 223.268,171.538 222.951,171.183 222.815 C 170.774 222.658,170.615 222.277,170.746 221.773 C 170.861 221.336,170.791 220.979,170.592 220.979 C 170.393 220.979,170.230 220.634,170.230 220.213 C 170.230 219.792,170.005 219.365,169.730 219.264 C 169.394 219.141,169.361 218.941,169.630 218.653 C 170.273 217.964,169.911 208.991,169.240 208.991 C 168.942 208.991,168.638 208.823,168.565 208.618 C 168.417 208.204,160.987 208.071,158.388 208.435 C 157.379 208.576,156.632 208.496,156.467 208.229 C 156.019 207.504,152.248 207.670,152.248 208.415 " stroke="none" fill="#e3e3db" fill-rule="evenodd"></path><path id="path2" d="M194.805 116.284 C 194.941 116.503,195.941 116.683,197.027 116.683 C 198.113 116.683,199.001 116.503,199.001 116.284 C 199.001 116.064,198.001 115.884,196.780 115.884 C 195.400 115.884,194.652 116.036,194.805 116.284 M203.397 116.284 C 203.397 116.503,204.206 116.683,205.195 116.683 C 206.184 116.683,206.993 116.503,206.993 116.284 C 206.993 116.064,206.184 115.884,205.195 115.884 C 204.206 115.884,203.397 116.064,203.397 116.284 M190.210 117.083 C 190.539 117.296,191.259 117.455,191.808 117.437 L 192.807 117.403 191.808 117.083 C 190.268 116.590,189.447 116.590,190.210 117.083 M209.790 117.083 L 208.791 117.403 209.790 117.437 C 210.340 117.455,211.059 117.296,211.389 117.083 C 212.152 116.590,211.330 116.590,209.790 117.083 M187.213 117.483 C 187.349 117.702,187.719 117.882,188.036 117.882 C 188.352 117.882,188.611 117.702,188.611 117.483 C 188.611 117.263,188.241 117.083,187.789 117.083 C 187.336 117.083,187.077 117.263,187.213 117.483 M183.417 117.882 C 183.417 118.102,183.686 118.282,184.016 118.282 C 184.346 118.282,184.615 118.102,184.615 117.882 C 184.615 117.662,184.346 117.483,184.016 117.483 C 183.686 117.483,183.417 117.662,183.417 117.882 M216.983 117.882 C 216.983 118.102,217.253 118.282,217.582 118.282 C 217.912 118.282,218.182 118.102,218.182 117.882 C 218.182 117.662,217.912 117.483,217.582 117.483 C 217.253 117.483,216.983 117.662,216.983 117.882 M176.256 119.780 C 175.980 120.254,175.845 120.303,175.836 119.931 C 175.826 119.469,175.722 119.468,175.171 119.925 C 174.811 120.223,174.242 120.470,173.906 120.473 C 173.570 120.477,173.221 120.749,173.131 121.079 C 173.005 121.536,173.052 121.557,173.328 121.165 C 173.527 120.883,173.991 120.767,174.358 120.908 C 174.743 121.056,175.025 120.970,175.025 120.705 C 175.025 120.452,175.250 120.281,175.524 120.325 C 176.214 120.436,177.423 119.871,177.423 119.438 C 177.423 118.829,176.684 119.045,176.256 119.780 M171.104 121.330 C 170.853 121.778,170.653 121.840,170.459 121.527 C 170.258 121.201,170.017 121.235,169.605 121.647 C 168.854 122.397,168.861 122.916,169.613 122.292 C 169.933 122.027,170.384 121.926,170.615 122.069 C 170.846 122.212,171.138 122.059,171.265 121.729 C 171.391 121.399,171.750 121.227,172.061 121.347 C 172.373 121.466,172.627 121.365,172.627 121.122 C 172.627 120.444,171.515 120.596,171.104 121.330 M228.571 121.161 C 228.571 121.387,228.931 121.478,229.371 121.363 C 229.810 121.248,230.170 121.327,230.170 121.540 C 230.170 121.752,230.362 121.807,230.596 121.662 C 231.180 121.301,230.792 120.993,229.584 120.861 C 229.027 120.800,228.571 120.935,228.571 121.161 M232.567 122.601 C 232.567 122.812,232.937 123.080,233.389 123.199 C 233.912 123.335,234.155 123.243,234.056 122.946 C 233.864 122.371,232.567 122.071,232.567 122.601 M163.936 123.924 C 162.740 124.269,162.110 125.075,163.037 125.075 C 163.257 125.075,163.437 124.876,163.437 124.633 C 163.437 124.389,163.720 124.299,164.066 124.432 C 164.412 124.564,164.964 124.404,165.293 124.075 C 165.963 123.405,165.797 123.386,163.936 123.924 M236.164 124.276 C 236.164 124.496,236.434 124.675,236.763 124.675 C 237.093 124.675,237.363 124.496,237.363 124.276 C 237.363 124.056,237.093 123.876,236.763 123.876 C 236.434 123.876,236.164 124.056,236.164 124.276 M161.139 125.340 C 160.463 125.612,160.504 126.274,161.196 126.274 C 161.502 126.274,161.856 126.004,161.983 125.674 C 162.218 125.062,162.021 124.984,161.139 125.340 M243.357 127.845 C 243.357 128.050,243.716 128.332,244.156 128.472 C 244.595 128.611,244.955 128.893,244.955 129.098 C 244.955 129.303,245.166 129.471,245.424 129.471 C 245.682 129.471,245.471 129.021,244.955 128.472 C 243.987 127.441,243.357 127.194,243.357 127.845 M189.411 132.168 C 189.411 132.333,190.176 132.514,191.109 132.571 C 192.345 132.647,192.644 132.567,192.208 132.278 C 191.506 131.813,189.410 131.731,189.411 132.168 M208.192 132.270 C 207.769 132.545,208.197 132.631,209.648 132.563 C 210.779 132.511,211.623 132.333,211.523 132.168 C 211.262 131.737,208.900 131.810,208.192 132.270 M186.453 132.562 C 186.321 132.693,186.217 132.995,186.220 133.233 C 186.223 133.472,186.400 133.397,186.613 133.067 C 186.872 132.667,187.003 132.634,187.007 132.967 C 187.010 133.242,187.193 133.467,187.413 133.467 C 187.632 133.467,187.812 133.306,187.812 133.110 C 187.812 132.661,186.773 132.242,186.453 132.562 M214.013 132.648 C 213.521 132.827,213.402 133.029,213.685 133.204 C 213.930 133.356,214.255 133.278,214.408 133.031 C 214.604 132.713,214.785 132.740,215.029 133.124 C 215.259 133.487,215.374 133.509,215.378 133.190 C 215.387 132.514,214.907 132.323,214.013 132.648 M251.506 133.299 C 251.639 133.647,251.748 134.007,251.748 134.099 C 251.748 134.191,251.911 134.266,252.110 134.266 C 252.310 134.266,252.379 133.906,252.264 133.467 C 252.149 133.027,251.877 132.667,251.659 132.667 C 251.441 132.667,251.372 132.952,251.506 133.299 M147.686 134.123 C 147.305 135.115,147.725 135.251,148.233 134.300 C 148.479 133.841,148.513 133.467,148.309 133.467 C 148.105 133.467,147.824 133.762,147.686 134.123 M181.019 133.781 C 181.019 133.954,181.383 134.123,181.827 134.157 C 182.271 134.190,182.530 134.048,182.403 133.842 C 182.122 133.388,181.019 133.339,181.019 133.781 M218.382 133.866 C 218.246 134.086,218.404 134.266,218.734 134.266 C 219.064 134.266,219.445 134.086,219.580 133.866 C 219.716 133.646,219.558 133.467,219.228 133.467 C 218.898 133.467,218.517 133.646,218.382 133.866 M253.347 134.616 C 253.347 134.809,253.602 135.179,253.915 135.438 C 254.381 135.825,254.444 135.762,254.268 135.088 C 254.058 134.285,253.347 133.921,253.347 134.616 M223.776 135.465 C 223.776 135.684,224.046 135.864,224.376 135.864 C 224.705 135.864,224.975 135.684,224.975 135.465 C 224.975 135.245,224.705 135.065,224.376 135.065 C 224.046 135.065,223.776 135.245,223.776 135.465 M174.525 136.021 C 173.795 136.575,173.610 137.063,174.130 137.063 C 174.297 137.063,174.658 136.703,174.932 136.264 C 175.514 135.332,175.468 135.305,174.525 136.021 M144.502 136.563 C 144.366 136.948,144.152 137.532,144.026 137.862 C 143.900 138.192,144.166 138.012,144.617 137.463 C 145.503 136.383,145.660 135.864,145.102 135.864 C 144.907 135.864,144.638 136.179,144.502 136.563 M172.685 136.626 C 172.283 136.876,172.264 137.038,172.611 137.253 C 173.160 137.592,173.571 137.292,173.368 136.701 C 173.285 136.459,173.003 136.428,172.685 136.626 M228.172 137.020 C 228.172 137.216,228.456 137.486,228.804 137.620 C 229.782 137.995,229.878 137.913,229.228 137.263 C 228.549 136.583,228.172 136.497,228.172 137.020 M230.569 137.868 C 230.037 138.218,230.037 138.305,230.569 138.655 C 231.368 139.180,232.567 139.167,232.567 138.634 C 232.567 138.380,232.221 138.318,231.708 138.481 C 231.024 138.698,230.899 138.621,231.096 138.108 C 231.384 137.357,231.363 137.347,230.569 137.868 M167.433 139.085 C 167.433 139.317,167.280 139.413,167.093 139.298 C 166.732 139.075,164.865 140.623,165.151 140.909 C 165.514 141.272,166.635 140.538,166.665 139.917 C 166.685 139.503,166.771 139.445,166.898 139.760 C 167.009 140.035,167.294 140.260,167.532 140.260 C 167.771 140.260,167.847 140.141,167.702 139.997 C 167.558 139.852,167.640 139.493,167.885 139.198 C 168.212 138.803,168.211 138.661,167.881 138.661 C 167.634 138.661,167.433 138.852,167.433 139.085 M233.250 139.359 C 233.515 140.077,234.133 140.642,234.665 140.653 C 235.300 140.666,234.921 139.923,233.978 139.305 C 233.054 138.700,233.008 138.704,233.250 139.359 M138.509 141.916 C 136.997 143.438,135.857 144.781,135.976 144.901 C 136.283 145.207,141.562 139.961,141.396 139.515 C 141.320 139.314,140.021 140.394,138.509 141.916 M238.168 142.069 C 238.159 142.655,239.784 143.969,240.098 143.630 C 240.242 143.475,240.134 143.266,239.858 143.168 C 239.582 143.069,239.474 142.796,239.620 142.561 C 239.784 142.296,239.693 142.252,239.378 142.447 C 239.083 142.629,238.726 142.530,238.523 142.209 C 238.331 141.906,238.171 141.843,238.168 142.069 M161.119 142.737 C 160.555 143.301,160.492 143.856,160.992 143.856 C 161.187 143.856,161.439 143.497,161.554 143.057 C 161.798 142.124,161.760 142.096,161.119 142.737 M261.813 142.682 C 261.909 142.971,262.224 143.285,262.512 143.382 C 262.812 143.482,262.962 143.332,262.862 143.032 C 262.766 142.744,262.451 142.429,262.163 142.333 C 261.863 142.233,261.713 142.383,261.813 142.682 M159.176 144.356 C 158.577 145.315,158.654 146.105,159.266 145.278 C 159.829 144.518,160.014 143.856,159.664 143.856 C 159.567 143.856,159.347 144.081,159.176 144.356 M263.337 144.228 C 263.337 144.603,264.583 145.455,265.132 145.455 C 265.573 145.455,264.916 144.673,264.114 144.244 C 263.606 143.972,263.337 143.967,263.337 144.228 M264.967 146.092 C 264.919 146.753,266.415 147.961,267.010 147.741 C 267.330 147.623,267.123 147.384,266.475 147.126 C 265.894 146.895,265.324 146.469,265.208 146.180 C 265.093 145.891,264.984 145.851,264.967 146.092 M133.666 147.359 C 133.171 147.723,132.958 148.651,133.370 148.651 C 133.537 148.651,133.898 148.292,134.173 147.852 C 134.672 147.053,134.419 146.806,133.666 147.359 M152.809 149.113 L 152.048 149.974 153.147 149.267 C 154.280 148.537,154.494 148.252,153.908 148.252 C 153.722 148.252,153.228 148.639,152.809 149.113 M246.953 148.757 C 246.953 149.265,249.945 152.647,250.394 152.647 C 250.663 152.647,249.813 151.142,249.455 150.984 C 249.288 150.910,248.656 150.251,248.052 149.520 C 247.448 148.789,246.953 148.445,246.953 148.757 M266.933 148.945 C 266.933 149.226,268.240 150.220,268.631 150.237 C 269.295 150.265,268.864 149.622,267.929 149.188 C 267.381 148.934,266.933 148.825,266.933 148.945 M131.568 150.793 C 131.074 151.038,130.669 151.382,130.669 151.557 C 130.669 151.942,132.123 151.207,132.469 150.647 C 132.604 150.429,132.659 150.272,132.591 150.299 C 132.523 150.326,132.063 150.548,131.568 150.793 M268.531 151.035 C 268.531 151.412,269.795 152.248,270.365 152.248 C 270.524 152.248,270.328 151.888,269.930 151.449 C 269.155 150.592,268.531 150.408,268.531 151.035 M149.451 152.448 C 148.911 153.098,149.040 153.180,150.017 152.804 C 150.365 152.671,150.649 152.401,150.649 152.205 C 150.649 151.652,150.002 151.783,149.451 152.448 M250.949 153.303 C 250.949 153.637,252.245 154.616,252.709 154.633 C 252.908 154.640,252.745 154.286,252.348 153.846 C 251.639 153.063,250.949 152.795,250.949 153.303 M208.089 156.344 C 208.187 157.498,208.430 158.981,208.628 159.640 C 208.950 160.712,208.967 160.670,208.794 159.241 C 208.687 158.362,208.598 156.878,208.596 155.944 C 208.593 155.010,208.438 154.246,208.250 154.246 C 208.063 154.246,207.990 155.190,208.089 156.344 M191.808 162.837 C 191.808 168.032,191.954 171.029,192.208 171.029 C 192.460 171.029,192.607 168.240,192.607 163.460 C 192.607 158.845,192.763 155.795,193.007 155.644 C 193.227 155.509,193.404 155.183,193.400 154.921 C 193.397 154.636,193.240 154.685,193.007 155.045 C 192.749 155.445,192.618 155.478,192.614 155.145 C 192.610 154.870,192.428 154.645,192.208 154.645 C 191.954 154.645,191.808 157.642,191.808 162.837 M202.597 154.978 C 202.597 155.235,202.193 155.465,201.698 155.491 C 200.958 155.529,200.930 155.571,201.541 155.728 C 202.338 155.933,203.321 155.236,202.870 154.785 C 202.720 154.635,202.597 154.722,202.597 154.978 M125.974 159.329 C 125.699 159.427,125.475 159.740,125.475 160.024 C 125.475 160.309,125.205 160.765,124.875 161.039 C 124.243 161.564,124.069 162.249,124.575 162.221 C 124.893 162.203,126.786 159.405,126.589 159.244 C 126.525 159.193,126.249 159.231,125.974 159.329 M257.018 160.265 C 257.114 160.553,257.429 160.868,257.717 160.964 C 258.017 161.064,258.167 160.914,258.067 160.614 C 257.971 160.326,257.656 160.011,257.368 159.915 C 257.068 159.815,256.918 159.965,257.018 160.265 M142.101 161.210 C 141.959 161.775,141.577 162.238,141.251 162.238 C 140.554 162.238,140.508 162.610,141.103 163.437 C 141.467 163.943,141.499 163.927,141.309 163.337 C 141.166 162.891,141.292 162.637,141.657 162.637 C 142.429 162.637,143.251 161.073,142.745 160.567 C 142.497 160.319,142.267 160.548,142.101 161.210 M237.762 161.377 C 237.762 161.562,238.115 162.034,238.547 162.424 C 239.314 163.119,239.321 163.111,238.847 162.090 C 238.380 161.084,237.762 160.678,237.762 161.377 M258.230 162.230 C 258.502 162.665,258.953 163.109,259.233 163.217 C 259.578 163.349,259.533 163.093,259.096 162.426 C 258.332 161.260,257.508 161.074,258.230 162.230 M240.597 164.481 C 241.329 165.363,242.592 165.988,242.341 165.344 C 242.233 165.064,241.684 164.621,241.123 164.360 C 240.232 163.944,240.165 163.960,240.597 164.481 M259.341 164.236 C 259.341 164.456,259.605 164.635,259.928 164.635 C 260.266 164.635,260.424 164.872,260.300 165.194 C 260.068 165.799,260.825 166.481,261.254 166.052 C 261.398 165.908,261.251 165.623,260.927 165.419 C 260.604 165.214,260.497 165.044,260.688 165.041 C 261.142 165.033,260.152 163.836,259.691 163.836 C 259.498 163.836,259.341 164.016,259.341 164.236 M139.548 165.843 C 139.079 166.593,139.101 166.615,139.851 166.147 C 140.296 165.869,140.659 165.505,140.659 165.338 C 140.659 164.762,140.051 165.038,139.548 165.843 M277.323 166.001 C 277.323 166.422,278.526 167.561,278.743 167.344 C 278.844 167.244,278.565 166.835,278.124 166.436 C 277.683 166.037,277.323 165.841,277.323 166.001 M214.723 168.692 C 214.757 169.935,214.920 170.868,215.085 170.767 C 215.478 170.525,215.420 168.251,214.995 167.233 C 214.769 166.691,214.681 167.161,214.723 168.692 M137.562 168.830 C 136.866 169.620,136.936 169.788,137.862 169.546 C 138.302 169.431,138.661 169.089,138.661 168.785 C 138.661 168.082,138.204 168.101,137.562 168.830 M278.799 169.288 C 279.061 169.395,279.170 169.785,279.040 170.156 C 278.855 170.681,278.914 170.727,279.307 170.364 C 279.866 169.849,279.539 169.013,278.798 169.063 C 278.431 169.087,278.431 169.139,278.799 169.288 M244.903 169.679 C 245.105 169.783,245.178 170.220,245.066 170.649 C 244.917 171.218,245.064 171.427,245.608 171.422 C 246.023 171.419,246.176 171.286,245.954 171.123 C 245.734 170.961,245.554 170.574,245.554 170.263 C 245.554 169.952,245.325 169.651,245.045 169.594 C 244.765 169.537,244.701 169.576,244.903 169.679 M208.441 170.845 C 208.304 171.202,208.213 172.154,208.239 172.960 C 208.282 174.309,208.312 174.268,208.618 172.440 C 208.959 170.400,208.881 169.698,208.441 170.845 M263.041 170.838 C 263.111 171.273,263.389 171.988,263.658 172.428 C 264.094 173.140,264.119 173.097,263.890 172.028 C 263.596 170.656,262.842 169.598,263.041 170.838 M222.336 171.097 C 222.144 171.407,222.261 171.482,222.682 171.320 C 223.032 171.186,223.533 171.336,223.796 171.652 C 224.348 172.317,224.975 172.411,224.975 171.828 C 224.975 171.608,224.705 171.429,224.376 171.429 C 224.046 171.429,223.776 171.249,223.776 171.029 C 223.776 170.475,222.688 170.526,222.336 171.097 M119.481 172.827 C 119.481 173.157,119.660 173.427,119.880 173.427 C 120.100 173.427,120.280 173.157,120.280 172.827 C 120.280 172.498,120.100 172.228,119.880 172.228 C 119.660 172.228,119.481 172.498,119.481 172.827 M246.154 173.027 C 246.154 173.247,246.346 173.427,246.580 173.427 C 246.837 173.427,246.899 173.785,246.735 174.326 C 246.525 175.021,246.573 175.121,246.948 174.765 C 247.224 174.504,247.317 173.945,247.166 173.467 C 246.896 172.616,246.154 172.294,246.154 173.027 M134.910 174.414 C 134.305 175.337,134.308 175.384,134.964 175.142 C 135.682 174.877,136.247 174.259,136.258 173.726 C 136.271 173.092,135.528 173.470,134.910 174.414 M264.227 173.901 C 264.314 174.162,264.599 174.447,264.860 174.534 C 265.152 174.631,265.242 174.449,265.092 174.059 C 264.814 173.333,263.988 173.182,264.227 173.901 M280.798 173.983 C 280.634 174.399,280.595 174.834,280.710 174.949 C 281.074 175.313,281.395 174.716,281.242 173.957 C 281.102 173.262,281.081 173.263,280.798 173.983 M264.535 175.382 C 264.535 175.578,264.802 175.841,265.128 175.966 C 265.454 176.091,265.622 176.452,265.500 176.768 C 265.379 177.083,265.464 177.456,265.690 177.595 C 265.915 177.734,266.003 178.157,265.886 178.534 C 265.712 179.097,265.760 179.086,266.150 178.474 C 266.522 177.891,266.517 177.659,266.129 177.420 C 265.856 177.251,265.756 176.911,265.908 176.665 C 266.060 176.419,265.916 175.949,265.588 175.621 C 264.912 174.945,264.535 174.859,264.535 175.382 M281.319 176.424 C 281.319 176.753,281.499 177.023,281.718 177.023 C 281.938 177.023,282.118 176.753,282.118 176.424 C 282.118 176.094,281.938 175.824,281.718 175.824 C 281.499 175.824,281.319 176.094,281.319 176.424 M230.782 179.138 C 230.611 179.532,230.583 179.967,230.720 180.104 C 231.126 180.510,231.453 179.940,231.266 179.152 C 231.100 178.454,231.079 178.453,230.782 179.138 M266.134 180.171 C 266.134 180.364,266.393 180.737,266.710 180.999 C 267.026 181.262,267.194 181.715,267.082 182.007 C 266.970 182.298,267.074 182.657,267.312 182.804 C 267.550 182.952,267.642 183.240,267.515 183.444 C 267.389 183.649,267.476 183.816,267.709 183.816 C 267.941 183.816,268.132 183.546,268.132 183.217 C 268.132 182.887,267.944 182.617,267.715 182.617 C 267.485 182.617,267.325 182.393,267.359 182.118 C 267.454 181.337,266.878 179.820,266.487 179.820 C 266.293 179.820,266.134 179.978,266.134 180.171 M117.325 181.651 C 116.949 182.631,117.038 183.417,117.525 183.417 C 117.770 183.417,117.856 183.126,117.718 182.767 C 117.581 182.409,117.674 181.870,117.924 181.568 C 118.205 181.229,118.224 181.019,117.974 181.019 C 117.751 181.019,117.459 181.303,117.325 181.651 M133.067 182.018 C 133.067 182.348,133.247 182.617,133.467 182.617 C 133.686 182.617,133.866 182.348,133.866 182.018 C 133.866 181.688,133.686 181.419,133.467 181.419 C 133.247 181.419,133.067 181.688,133.067 182.018 M208.192 183.992 C 208.192 184.309,208.372 184.679,208.591 184.815 C 208.811 184.951,208.991 184.692,208.991 184.239 C 208.991 183.787,208.811 183.417,208.591 183.417 C 208.372 183.417,208.192 183.676,208.192 183.992 M230.569 184.815 C 230.569 185.145,230.749 185.415,230.969 185.415 C 231.189 185.415,231.369 185.145,231.369 184.815 C 231.369 184.486,231.189 184.216,230.969 184.216 C 230.749 184.216,230.569 184.486,230.569 184.815 M267.732 186.414 C 267.732 186.743,267.912 187.013,268.132 187.013 C 268.352 187.013,268.531 186.743,268.531 186.414 C 268.531 186.084,268.352 185.814,268.132 185.814 C 267.912 185.814,267.732 186.084,267.732 186.414 M116.163 187.170 C 115.999 187.586,115.959 188.021,116.075 188.136 C 116.439 188.500,116.760 187.903,116.607 187.144 C 116.467 186.449,116.446 186.450,116.163 187.170 M284.008 186.855 C 283.847 187.015,283.728 187.611,283.742 188.178 L 283.767 189.211 284.153 188.246 C 284.568 187.206,284.482 186.380,284.008 186.855 M246.709 188.379 C 246.843 188.910,246.768 189.436,246.543 189.547 C 246.318 189.659,246.363 189.704,246.643 189.647 C 247.231 189.529,247.427 187.413,246.850 187.413 C 246.639 187.413,246.576 187.847,246.709 188.379 M268.432 188.077 C 268.706 188.188,268.931 188.454,268.931 188.668 C 268.931 188.883,268.751 188.947,268.531 188.811 C 268.312 188.675,268.132 188.744,268.132 188.964 C 268.132 189.672,268.840 189.826,269.090 189.172 C 269.381 188.415,269.065 187.800,268.408 187.844 C 268.065 187.866,268.071 187.932,268.432 188.077 M245.854 190.808 C 245.112 191.650,245.248 191.881,246.154 191.316 C 246.593 191.041,246.953 190.680,246.953 190.513 C 246.953 190.037,246.402 190.185,245.854 190.808 M130.875 191.399 C 130.742 191.614,130.859 192.558,131.134 193.497 C 131.617 195.149,131.638 195.166,131.786 194.018 C 131.870 193.365,131.743 192.765,131.504 192.686 C 130.910 192.488,130.954 191.522,131.568 191.274 C 131.929 191.128,131.935 191.063,131.592 191.041 C 131.330 191.023,131.008 191.185,130.875 191.399 M269.046 192.223 C 268.997 192.917,269.125 193.334,269.346 193.198 C 269.796 192.919,269.871 191.009,269.431 191.010 C 269.266 191.010,269.093 191.556,269.046 192.223 M284.303 191.848 C 284.156 192.310,284.189 192.840,284.376 193.026 C 284.563 193.212,284.753 192.834,284.799 192.186 C 284.897 190.808,284.680 190.660,284.303 191.848 M115.491 192.284 C 115.487 192.876,115.664 193.471,115.884 193.606 C 116.394 193.922,116.394 192.598,115.884 191.808 C 115.581 191.339,115.495 191.443,115.491 192.284 M215.584 193.407 C 215.720 193.626,216.675 193.803,217.706 193.800 C 219.063 193.796,219.415 193.687,218.981 193.407 C 218.177 192.887,215.263 192.887,215.584 193.407 M243.527 194.397 C 242.851 194.908,242.840 194.981,243.433 194.992 C 243.805 194.999,244.227 194.813,244.372 194.579 C 244.807 193.874,244.348 193.776,243.527 194.397 M284.915 200.153 C 284.915 204.831,285.532 205.212,285.664 200.616 C 285.727 198.438,285.603 196.981,285.341 196.819 C 285.052 196.641,284.915 197.710,284.915 200.153 M191.808 199.201 C 191.808 200.190,191.988 200.999,192.208 200.999 C 192.428 200.999,192.607 200.190,192.607 199.201 C 192.607 198.212,192.428 197.403,192.208 197.403 C 191.988 197.403,191.808 198.212,191.808 199.201 M241.601 198.035 C 241.452 198.425,241.541 198.607,241.833 198.510 C 242.430 198.311,242.759 197.403,242.234 197.403 C 242.019 197.403,241.734 197.687,241.601 198.035 M208.991 203.972 C 208.991 205.453,209.165 206.593,209.391 206.593 C 209.612 206.593,209.790 205.536,209.790 204.219 C 209.790 202.914,209.610 201.734,209.391 201.598 C 209.140 201.443,208.991 202.327,208.991 203.972 M131.141 206.932 C 130.851 207.887,130.716 208.772,130.841 208.897 C 130.967 209.022,131.069 208.839,131.069 208.492 C 131.069 208.144,131.265 207.794,131.504 207.714 C 131.743 207.634,131.878 207.035,131.803 206.382 C 131.674 205.245,131.646 205.268,131.141 206.932 M213.786 207.193 C 213.786 207.742,213.966 208.192,214.186 208.192 C 214.406 208.192,214.585 207.742,214.585 207.193 C 214.585 206.643,214.406 206.194,214.186 206.194 C 213.966 206.194,213.786 206.643,213.786 207.193 M269.033 208.691 C 269.087 209.514,269.266 210.189,269.431 210.189 C 269.862 210.190,269.788 208.499,269.326 207.792 C 269.040 207.354,268.961 207.594,269.033 208.691 M156.509 208.292 C 156.754 208.696,159.110 208.662,159.770 208.244 C 160.092 208.039,159.523 207.925,158.313 207.950 C 157.220 207.973,156.409 208.127,156.509 208.292 M208.991 212.587 C 208.991 215.251,209.148 216.983,209.391 216.983 C 209.633 216.983,209.790 215.251,209.790 212.587 C 209.790 209.923,209.633 208.192,209.391 208.192 C 209.148 208.192,208.991 209.923,208.991 212.587 M224.875 208.474 C 225.370 208.569,225.774 208.825,225.774 209.042 C 225.774 209.260,225.973 209.315,226.216 209.164 C 226.809 208.798,225.845 208.188,224.775 208.252 C 224.086 208.294,224.100 208.324,224.875 208.474 M284.252 208.813 C 284.121 209.155,284.199 209.829,284.425 210.312 C 284.786 211.078,284.830 211.000,284.776 209.692 C 284.709 208.047,284.610 207.880,284.252 208.813 M220.180 209.391 C 220.180 209.610,220.809 209.790,221.578 209.790 C 222.348 209.790,222.977 209.610,222.977 209.391 C 222.977 209.171,222.348 208.991,221.578 208.991 C 220.809 208.991,220.180 209.171,220.180 209.391 M131.469 210.789 C 131.469 211.119,131.648 211.389,131.868 211.389 C 132.088 211.389,132.268 211.119,132.268 210.789 C 132.268 210.460,132.088 210.190,131.868 210.190 C 131.648 210.190,131.469 210.460,131.469 210.789 M151.449 212.987 C 151.449 214.319,151.626 215.385,151.848 215.385 C 152.070 215.385,152.248 214.319,152.248 212.987 C 152.248 211.655,152.070 210.589,151.848 210.589 C 151.626 210.589,151.449 211.655,151.449 212.987 M268.409 211.644 C 267.983 212.071,268.080 212.666,268.531 212.388 C 268.751 212.252,268.931 212.316,268.931 212.531 C 268.931 212.745,268.706 213.011,268.432 213.122 C 268.071 213.267,268.065 213.332,268.408 213.355 C 268.670 213.372,268.994 213.208,269.129 212.990 C 269.438 212.491,268.785 211.269,268.409 211.644 M283.722 213.463 C 283.719 214.054,283.896 214.649,284.116 214.785 C 284.626 215.101,284.626 213.777,284.116 212.987 C 283.813 212.518,283.727 212.622,283.722 213.463 M115.884 214.186 C 115.884 214.625,116.064 214.985,116.284 214.985 C 116.503 214.985,116.683 214.625,116.683 214.186 C 116.683 213.746,116.503 213.387,116.284 213.387 C 116.064 213.387,115.884 213.746,115.884 214.186 M131.868 214.585 C 131.868 215.025,132.010 215.385,132.183 215.385 C 132.356 215.385,132.524 215.025,132.557 214.585 C 132.591 214.146,132.449 213.786,132.243 213.786 C 132.037 213.786,131.868 214.146,131.868 214.585 M283.317 217.582 C 283.317 217.912,283.497 218.182,283.716 218.182 C 283.936 218.182,284.116 217.912,284.116 217.582 C 284.116 217.253,283.936 216.983,283.716 216.983 C 283.497 216.983,283.317 217.253,283.317 217.582 M133.067 218.382 C 133.067 218.711,133.247 218.981,133.467 218.981 C 133.686 218.981,133.866 218.711,133.866 218.382 C 133.866 218.052,133.686 217.782,133.467 217.782 C 133.247 217.782,133.067 218.052,133.067 218.382 M152.418 219.200 C 152.402 219.937,152.537 220.448,152.718 220.336 C 153.129 220.082,153.152 218.293,152.747 218.045 C 152.582 217.944,152.434 218.464,152.418 219.200 M118.182 222.043 C 118.457 222.154,118.681 222.420,118.681 222.634 C 118.681 222.849,118.501 222.913,118.282 222.777 C 118.062 222.641,117.882 222.849,117.882 223.239 C 117.882 223.892,117.933 223.897,118.529 223.301 C 119.201 222.628,118.984 221.755,118.158 221.810 C 117.815 221.833,117.822 221.898,118.182 222.043 M191.443 223.776 C 191.431 224.545,191.595 225.445,191.808 225.774 C 192.311 226.552,192.311 224.347,191.808 223.177 C 191.528 222.524,191.461 222.633,191.443 223.776 M172.462 224.121 C 172.222 224.508,174.115 226.418,174.428 226.105 C 174.541 225.992,174.192 225.423,173.652 224.841 C 173.112 224.258,172.577 223.934,172.462 224.121 M153.047 224.775 C 153.047 225.105,153.227 225.375,153.447 225.375 C 153.666 225.375,153.846 225.105,153.846 224.775 C 153.846 224.446,153.666 224.176,153.447 224.176 C 153.227 224.176,153.047 224.446,153.047 224.775 M135.065 225.175 C 135.065 225.504,135.245 225.774,135.465 225.774 C 135.684 225.774,135.864 225.504,135.864 225.175 C 135.864 224.845,135.684 224.575,135.465 224.575 C 135.245 224.575,135.065 224.845,135.065 225.175 M281.169 224.894 C 281.060 225.070,281.117 225.448,281.295 225.736 C 281.522 226.103,281.700 226.127,281.892 225.817 C 282.042 225.574,281.930 225.372,281.642 225.369 C 281.262 225.364,281.283 225.256,281.718 224.975 C 282.078 224.742,282.128 224.585,281.842 224.582 C 281.580 224.578,281.277 224.719,281.169 224.894 M175.680 227.173 C 175.941 227.853,177.023 227.995,177.023 227.349 C 177.023 227.116,176.843 227.037,176.623 227.173 C 176.404 227.309,176.224 227.229,176.224 226.997 C 176.224 226.764,176.050 226.573,175.837 226.573 C 175.624 226.573,175.553 226.843,175.680 227.173 M136.151 227.489 C 135.913 228.109,136.938 229.629,137.329 229.237 C 137.480 229.086,137.257 228.701,136.834 228.380 C 136.398 228.050,136.280 227.792,136.563 227.785 C 136.838 227.778,137.063 227.592,137.063 227.373 C 137.063 226.795,136.384 226.881,136.151 227.489 M154.401 228.000 C 154.535 228.350,154.645 228.712,154.645 228.804 C 154.645 228.896,154.825 228.971,155.045 228.971 C 155.696 228.971,155.500 227.879,154.801 227.611 C 154.329 227.430,154.222 227.534,154.401 228.000 M263.948 228.551 C 263.801 228.789,263.514 228.881,263.309 228.754 C 263.104 228.628,262.937 228.715,262.937 228.947 C 262.937 229.465,263.346 229.479,264.124 228.987 C 264.448 228.782,264.600 228.503,264.464 228.367 C 264.328 228.230,264.096 228.313,263.948 228.551 M180.220 228.971 C 180.220 229.191,180.479 229.371,180.796 229.371 C 181.112 229.371,181.483 229.191,181.618 228.971 C 181.754 228.751,181.495 228.571,181.043 228.571 C 180.590 228.571,180.220 228.751,180.220 228.971 M184.016 228.971 C 183.876 229.198,184.212 229.371,184.792 229.371 C 185.354 229.371,185.814 229.191,185.814 228.971 C 185.814 228.751,185.465 228.571,185.039 228.571 C 184.612 228.571,184.152 228.751,184.016 228.971 M182.113 229.209 C 181.969 229.353,182.237 229.781,182.707 230.162 C 183.483 230.790,183.574 231.312,183.689 235.807 C 183.798 240.093,183.928 240.912,184.656 241.897 C 185.229 242.674,185.366 243.165,185.087 243.444 C 184.426 244.105,185.016 244.955,186.137 244.955 C 186.943 244.955,187.066 244.848,186.693 244.476 C 186.430 244.212,186.214 243.677,186.214 243.286 C 186.214 242.896,185.855 241.988,185.416 241.268 C 184.558 239.861,184.430 237.775,184.993 234.366 C 185.200 233.111,185.175 232.275,184.926 232.118 C 184.708 231.980,184.651 231.486,184.799 231.019 C 185.025 230.307,184.907 230.170,184.063 230.170 C 183.509 230.170,182.903 229.895,182.715 229.559 C 182.527 229.223,182.256 229.066,182.113 229.209 M278.935 230.943 C 278.333 232.068,278.403 232.743,279.054 232.092 C 279.347 231.799,279.587 231.246,279.587 230.864 C 279.587 229.972,279.446 229.989,278.935 230.943 M158.245 234.466 C 158.247 234.630,158.696 234.973,159.244 235.227 C 160.408 235.767,160.607 235.190,159.467 234.579 C 158.549 234.089,158.241 234.060,158.245 234.466 M208.522 234.466 C 208.266 235.571,208.450 243.945,208.714 243.233 C 208.892 242.755,208.982 240.520,208.914 238.268 C 208.802 234.519,208.712 233.646,208.522 234.466 M277.007 235.410 C 276.595 236.932,276.841 237.810,277.400 236.811 C 277.601 236.452,277.665 235.994,277.542 235.795 C 277.418 235.596,277.544 235.350,277.820 235.249 C 278.208 235.107,278.214 234.950,277.848 234.561 C 277.474 234.164,277.296 234.343,277.007 235.410 M122.278 235.165 C 122.278 235.495,122.458 235.764,122.677 235.764 C 122.897 235.764,123.077 235.495,123.077 235.165 C 123.077 234.835,122.897 234.565,122.677 234.565 C 122.458 234.565,122.278 234.835,122.278 235.165 M122.677 236.517 C 122.677 236.711,123.037 236.964,123.477 237.079 C 124.420 237.326,124.561 236.758,123.644 236.406 C 122.805 236.084,122.677 236.099,122.677 236.517 M124.086 238.146 C 123.747 238.694,124.047 239.106,124.638 238.903 C 124.879 238.820,124.910 238.538,124.712 238.219 C 124.463 237.817,124.301 237.798,124.086 238.146 M143.299 240.726 C 143.433 241.074,143.718 241.359,143.932 241.359 C 144.457 241.359,144.129 240.450,143.531 240.251 C 143.239 240.154,143.150 240.337,143.299 240.726 M166.118 240.959 C 166.233 241.399,166.486 241.758,166.680 241.758 C 167.098 241.758,167.112 241.631,166.790 240.792 C 166.438 239.874,165.871 240.015,166.118 240.959 M256.555 240.544 C 256.232 240.748,256.121 241.060,256.310 241.237 C 256.499 241.414,256.734 241.333,256.832 241.056 C 256.931 240.780,257.176 240.656,257.377 240.780 C 257.578 240.905,257.742 240.816,257.742 240.583 C 257.742 240.065,257.333 240.052,256.555 240.544 M167.433 241.571 C 167.433 242.217,168.057 242.364,168.406 241.800 C 168.527 241.603,168.358 241.339,168.030 241.213 C 167.667 241.074,167.433 241.215,167.433 241.571 M274.226 241.224 C 273.408 241.554,273.660 242.100,274.525 241.874 C 274.965 241.759,275.325 241.506,275.325 241.312 C 275.325 240.931,275.013 240.906,274.226 241.224 M191.015 242.258 C 191.018 242.532,191.176 243.001,191.365 243.299 C 191.804 243.992,192.382 243.188,192.056 242.339 C 191.783 241.628,191.007 241.568,191.015 242.258 M171.132 242.957 C 171.325 243.666,172.627 244.019,172.627 243.362 C 172.627 243.113,172.427 243.033,172.183 243.184 C 171.939 243.335,171.565 243.211,171.353 242.908 C 171.037 242.456,170.997 242.464,171.132 242.957 M272.627 243.222 C 271.809 243.552,272.061 244.098,272.927 243.872 C 273.367 243.757,273.726 243.504,273.726 243.310 C 273.726 242.929,273.415 242.904,272.627 243.222 M127.629 244.655 C 127.989 245.150,128.402 245.824,128.548 246.154 C 128.854 246.846,129.495 247.343,130.070 247.334 C 130.290 247.330,130.182 247.108,129.830 246.840 C 129.479 246.573,129.198 246.264,129.206 246.154 C 129.238 245.706,127.752 243.756,127.378 243.756 C 127.157 243.756,127.270 244.161,127.629 244.655 M176.623 244.555 C 176.623 244.775,176.983 244.955,177.423 244.955 C 177.862 244.955,178.222 244.775,178.222 244.555 C 178.222 244.336,177.862 244.156,177.423 244.156 C 176.983 244.156,176.623 244.336,176.623 244.555 M146.281 245.187 C 146.982 246.032,148.252 246.683,148.252 246.197 C 148.252 245.986,147.694 245.535,147.013 245.195 C 145.912 244.645,145.830 244.645,146.281 245.187 M253.247 245.219 C 252.642 245.537,252.148 245.974,252.148 246.190 C 252.148 246.687,253.411 246.040,254.128 245.177 C 254.728 244.453,254.698 244.454,253.247 245.219 M270.989 246.395 C 270.692 246.731,270.545 247.102,270.663 247.220 C 270.781 247.338,270.395 247.864,269.805 248.389 L 268.731 249.344 270.056 248.706 C 270.842 248.327,271.300 247.854,271.181 247.543 C 271.070 247.255,271.238 246.920,271.554 246.799 C 272.144 246.573,272.365 245.742,271.828 245.769 C 271.663 245.778,271.286 246.059,270.989 246.395 M130.569 248.816 C 130.844 248.927,131.069 249.272,131.069 249.584 C 131.069 249.895,131.249 250.150,131.469 250.150 C 131.688 250.150,131.868 250.006,131.868 249.830 C 131.868 249.357,130.972 248.547,130.490 248.583 C 130.259 248.600,130.295 248.705,130.569 248.816 M200.999 248.965 C 199.433 249.168,200.255 249.235,203.856 249.200 C 206.636 249.173,208.828 249.016,208.727 248.851 C 208.511 248.497,204.121 248.562,200.999 248.965 M248.041 250.990 C 247.443 251.672,246.953 252.427,246.953 252.668 C 246.953 252.935,247.072 252.958,247.256 252.727 C 247.422 252.518,248.085 251.763,248.729 251.049 C 249.373 250.335,249.726 249.750,249.514 249.750 C 249.302 249.750,248.639 250.308,248.041 250.990 M267.812 250.629 C 267.548 250.893,267.333 251.433,267.333 251.828 C 267.333 252.224,267.153 252.547,266.933 252.547 C 266.713 252.547,266.533 252.727,266.533 252.947 C 266.533 253.879,267.373 253.246,267.592 252.148 C 267.724 251.489,268.079 250.949,268.382 250.949 C 268.684 250.949,268.931 250.769,268.931 250.549 C 268.931 250.008,268.396 250.046,267.812 250.629 M133.866 253.347 C 134.416 253.776,135.000 254.132,135.165 254.137 C 135.330 254.142,135.465 254.426,135.465 254.769 C 135.465 255.141,135.652 255.276,135.929 255.105 C 136.453 254.781,134.196 252.541,133.360 252.556 C 133.089 252.561,133.317 252.917,133.866 253.347 M155.045 253.677 C 155.045 253.858,155.498 254.432,156.052 254.952 L 157.058 255.898 156.422 254.622 C 155.834 253.444,155.045 252.902,155.045 253.677 M136.264 256.543 C 136.264 256.763,136.429 256.943,136.631 256.943 C 136.832 256.943,137.327 257.048,137.730 257.175 C 138.399 257.388,138.396 257.354,137.686 256.776 C 136.798 256.052,136.264 255.965,136.264 256.543 M263.520 256.570 C 263.375 256.804,263.353 257.092,263.470 257.209 C 263.756 257.496,264.535 256.991,264.535 256.520 C 264.535 256.009,263.846 256.043,263.520 256.570 M160.246 257.642 C 160.265 258.602,160.933 258.950,161.474 258.284 C 161.838 257.836,161.861 257.695,161.538 257.889 C 161.264 258.054,161.039 257.999,161.039 257.766 C 161.039 257.533,160.859 257.343,160.639 257.343 C 160.420 257.343,160.243 257.478,160.246 257.642 M262.005 258.009 C 261.519 258.494,261.729 258.920,262.338 258.686 C 262.667 258.559,262.937 258.295,262.937 258.099 C 262.937 257.680,262.387 257.627,262.005 258.009 M139.461 259.919 C 139.461 260.018,139.939 260.602,140.523 261.218 L 141.586 262.338 140.836 261.039 C 140.195 259.927,139.461 259.329,139.461 259.919 M231.668 262.258 C 231.064 262.496,230.569 262.837,230.569 263.014 C 230.569 263.562,231.677 263.370,232.339 262.709 C 232.882 262.166,233.176 261.649,232.867 261.781 C 232.812 261.804,232.273 262.019,231.668 262.258 M255.414 264.661 C 254.521 265.612,254.318 266.136,254.845 266.131 C 255.010 266.130,255.451 265.590,255.826 264.933 C 256.644 263.494,256.562 263.440,255.414 264.661 M174.570 265.581 C 175.309 266.098,175.584 266.126,175.958 265.722 C 176.322 265.327,176.274 265.270,175.737 265.458 C 175.359 265.591,174.944 265.527,174.814 265.317 C 174.684 265.107,174.369 264.935,174.113 264.935 C 173.858 264.935,174.063 265.226,174.570 265.581 M224.975 265.734 C 224.975 265.954,225.245 266.134,225.574 266.134 C 225.904 266.134,226.174 265.954,226.174 265.734 C 226.174 265.514,225.904 265.335,225.574 265.335 C 225.245 265.335,224.975 265.514,224.975 265.734 M178.222 266.533 C 178.222 266.753,178.492 266.933,178.821 266.933 C 179.151 266.933,179.421 267.113,179.421 267.333 C 179.421 267.887,180.509 267.835,180.861 267.265 C 181.053 266.955,180.936 266.879,180.514 267.041 C 180.165 267.175,179.664 267.026,179.401 266.710 C 178.849 266.045,178.222 265.951,178.222 266.533 M250.017 269.048 C 249.614 269.460,249.344 269.857,249.418 269.931 C 249.668 270.180,251.033 268.984,250.891 268.640 C 250.813 268.452,250.420 268.636,250.017 269.048 M213.925 268.983 C 214.354 269.233,214.811 269.265,215.017 269.059 C 215.223 268.853,214.914 268.673,214.279 268.628 C 213.321 268.561,213.277 268.604,213.925 268.983 M210.989 269.416 C 210.989 269.589,211.349 269.730,211.788 269.730 C 212.228 269.730,212.587 269.589,212.587 269.416 C 212.587 269.244,212.228 269.102,211.788 269.102 C 211.349 269.102,210.989 269.244,210.989 269.416 M198.914 270.825 C 200.076 270.906,201.874 270.905,202.910 270.823 C 203.947 270.741,202.997 270.674,200.799 270.675 C 198.601 270.676,197.753 270.744,198.914 270.825 M247.033 271.009 C 246.469 271.573,246.406 272.128,246.906 272.128 C 247.101 272.128,247.353 271.768,247.468 271.329 C 247.712 270.396,247.674 270.368,247.033 271.009 M243.414 273.290 C 243.012 273.539,242.993 273.701,243.341 273.916 C 243.889 274.255,244.301 273.955,244.098 273.364 C 244.014 273.123,243.732 273.092,243.414 273.290 M236.419 277.123 C 236.292 277.453,236.363 277.722,236.576 277.722 C 236.789 277.722,236.963 277.532,236.963 277.299 C 236.963 277.066,237.143 276.987,237.363 277.123 C 237.582 277.259,237.762 277.179,237.762 276.947 C 237.762 276.301,236.680 276.443,236.419 277.123 M165.611 278.334 C 166.526 279.027,167.033 279.085,167.033 278.498 C 167.033 278.265,166.853 278.186,166.633 278.322 C 166.414 278.458,166.234 278.378,166.234 278.145 C 166.234 277.913,165.919 277.728,165.534 277.735 C 164.902 277.746,164.909 277.804,165.611 278.334 M235.188 278.084 C 235.065 278.284,234.605 278.352,234.165 278.238 C 233.701 278.116,233.367 278.225,233.367 278.498 C 233.367 278.757,233.187 278.857,232.967 278.721 C 232.747 278.585,232.567 278.677,232.567 278.924 C 232.567 279.184,232.906 279.278,233.367 279.148 C 233.806 279.023,234.525 278.819,234.965 278.694 C 235.405 278.570,235.764 278.300,235.764 278.095 C 235.764 277.621,235.478 277.616,235.188 278.084 M170.629 280.143 C 170.629 280.376,170.797 280.463,171.001 280.337 C 171.206 280.210,171.494 280.302,171.641 280.540 C 171.788 280.779,172.155 280.879,172.455 280.764 C 172.756 280.649,173.108 280.726,173.238 280.937 C 173.555 281.451,174.226 281.423,174.226 280.895 C 174.226 280.663,174.046 280.583,173.826 280.719 C 173.606 280.855,173.427 280.764,173.427 280.516 C 173.427 280.248,173.104 280.169,172.627 280.320 C 172.169 280.465,171.828 280.391,171.828 280.147 C 171.828 279.912,171.558 279.720,171.229 279.720 C 170.899 279.720,170.629 279.911,170.629 280.143 M224.575 281.718 C 224.575 281.938,224.845 282.118,225.175 282.118 C 225.504 282.118,225.774 281.938,225.774 281.718 C 225.774 281.499,225.504 281.319,225.175 281.319 C 224.845 281.319,224.575 281.499,224.575 281.718 M220.579 282.432 C 220.579 282.605,220.943 282.774,221.387 282.808 C 221.832 282.841,222.091 282.700,221.963 282.493 C 221.682 282.039,220.579 281.991,220.579 282.432 M180.619 283.317 C 180.619 283.536,180.889 283.716,181.219 283.716 C 181.548 283.716,181.818 283.536,181.818 283.317 C 181.818 283.097,181.548 282.917,181.219 282.917 C 180.889 282.917,180.619 283.097,180.619 283.317 M188.611 284.915 C 188.611 285.135,188.971 285.315,189.411 285.315 C 189.850 285.315,190.210 285.135,190.210 284.915 C 190.210 284.695,189.850 284.515,189.411 284.515 C 188.971 284.515,188.611 284.695,188.611 284.915 M209.391 284.915 C 209.391 285.135,209.840 285.315,210.390 285.315 C 210.939 285.315,211.389 285.135,211.389 284.915 C 211.389 284.695,210.939 284.515,210.390 284.515 C 209.840 284.515,209.391 284.695,209.391 284.915 M194.605 285.315 C 194.605 285.534,194.875 285.714,195.205 285.714 C 195.534 285.714,195.804 285.534,195.804 285.315 C 195.804 285.095,195.534 284.915,195.205 284.915 C 194.875 284.915,194.605 285.095,194.605 285.315 M204.196 285.315 C 204.196 285.534,204.466 285.714,204.795 285.714 C 205.125 285.714,205.395 285.534,205.395 285.315 C 205.395 285.095,205.125 284.915,204.795 284.915 C 204.466 284.915,204.196 285.095,204.196 285.315 " stroke="none" fill="#8f9393" fill-rule="evenodd"></path><path id="path3" d="M196.603 131.868 C 196.603 132.105,198.069 132.268,200.200 132.268 C 202.331 132.268,203.796 132.105,203.796 131.868 C 203.796 131.631,202.331 131.469,200.200 131.469 C 198.069 131.469,196.603 131.631,196.603 131.868 M143.233 137.650 C 142.575 138.148,142.557 138.238,143.114 138.249 C 143.475 138.256,143.874 137.992,144.001 137.662 C 144.286 136.918,144.203 136.916,143.233 137.650 M245.829 148.277 C 245.925 148.565,246.240 148.880,246.528 148.976 C 246.828 149.076,246.978 148.926,246.878 148.626 C 246.782 148.338,246.467 148.023,246.179 147.927 C 245.879 147.827,245.729 147.977,245.829 148.277 M208.711 156.244 C 208.711 157.453,208.786 157.947,208.878 157.343 C 208.969 156.738,208.969 155.749,208.878 155.145 C 208.786 154.540,208.711 155.035,208.711 156.244 M146.920 154.912 C 146.538 155.294,146.591 155.844,147.010 155.844 C 147.206 155.844,147.471 155.574,147.597 155.245 C 147.831 154.636,147.405 154.426,146.920 154.912 M194.605 155.045 C 194.605 155.285,196.204 155.445,198.601 155.445 C 200.999 155.445,202.597 155.285,202.597 155.045 C 202.597 154.805,200.999 154.645,198.601 154.645 C 196.204 154.645,194.605 154.805,194.605 155.045 M216.583 155.045 C 216.583 155.265,217.572 155.445,218.781 155.445 C 219.990 155.445,220.979 155.265,220.979 155.045 C 220.979 154.825,219.990 154.645,218.781 154.645 C 217.572 154.645,216.583 154.825,216.583 155.045 M214.985 158.242 C 214.985 159.121,215.056 159.840,215.143 159.840 C 215.230 159.840,215.369 159.121,215.453 158.242 C 215.537 157.363,215.466 156.643,215.295 156.643 C 215.125 156.643,214.985 157.363,214.985 158.242 M215.385 170.629 C 215.385 170.849,215.654 171.029,215.984 171.029 C 216.314 171.029,216.583 170.849,216.583 170.629 C 216.583 170.410,216.314 170.230,215.984 170.230 C 215.654 170.230,215.385 170.410,215.385 170.629 M191.808 178.422 C 191.808 181.623,191.970 184.216,192.171 184.216 C 192.370 184.216,192.557 181.608,192.585 178.422 C 192.619 174.654,192.492 172.627,192.223 172.627 C 191.956 172.627,191.808 174.688,191.808 178.422 M227.772 190.210 C 227.455 190.406,227.329 190.699,227.491 190.861 C 227.653 191.023,227.995 190.946,228.252 190.689 C 228.856 190.086,228.519 189.749,227.772 190.210 M191.808 195.405 C 191.808 196.503,191.988 197.403,192.208 197.403 C 192.428 197.403,192.607 196.503,192.607 195.405 C 192.607 194.306,192.428 193.407,192.208 193.407 C 191.988 193.407,191.808 194.306,191.808 195.405 M269.331 200.400 C 269.331 202.398,269.495 203.796,269.730 203.796 C 269.965 203.796,270.130 202.398,270.130 200.400 C 270.130 198.402,269.965 197.003,269.730 197.003 C 269.495 197.003,269.331 198.402,269.331 200.400 M224.176 208.991 C 224.176 209.211,224.535 209.391,224.975 209.391 C 225.415 209.391,225.774 209.211,225.774 208.991 C 225.774 208.771,225.415 208.591,224.975 208.591 C 224.535 208.591,224.176 208.771,224.176 208.991 M182.617 229.399 C 182.617 229.568,183.164 229.827,183.832 229.973 C 184.776 230.181,184.995 230.403,184.815 230.971 C 184.687 231.372,184.725 231.788,184.899 231.895 C 185.073 232.002,185.249 231.609,185.291 231.021 C 185.356 230.125,185.145 229.881,183.993 229.521 C 183.236 229.284,182.617 229.229,182.617 229.399 M185.171 233.537 C 185.050 233.851,185.019 234.525,185.101 235.036 C 185.210 235.719,185.303 235.568,185.452 234.466 C 185.661 232.914,185.550 232.548,185.171 233.537 M208.684 235.764 C 208.684 236.533,208.766 236.848,208.867 236.464 C 208.967 236.079,208.967 235.450,208.867 235.065 C 208.766 234.680,208.684 234.995,208.684 235.764 M184.825 238.362 C 184.981 239.461,185.245 240.508,185.412 240.690 C 185.580 240.872,185.543 240.063,185.330 238.892 C 184.833 236.149,184.454 235.751,184.825 238.362 M186.214 243.157 C 186.214 243.706,186.369 244.156,186.558 244.156 C 186.747 244.156,186.816 243.706,186.711 243.157 C 186.606 242.607,186.451 242.158,186.367 242.158 C 186.283 242.158,186.214 242.607,186.214 243.157 M179.021 244.555 C 179.021 244.780,180.145 244.955,181.595 244.955 C 183.010 244.955,184.280 244.775,184.416 244.555 C 184.571 244.303,183.621 244.156,181.842 244.156 C 180.228 244.156,179.021 244.327,179.021 244.555 M191.808 247.552 C 191.808 248.322,191.988 248.951,192.208 248.951 C 192.428 248.951,192.607 248.322,192.607 247.552 C 192.607 246.783,192.428 246.154,192.208 246.154 C 191.988 246.154,191.808 246.783,191.808 247.552 M149.451 248.352 C 149.451 248.580,152.664 251.748,152.895 251.748 C 153.299 251.748,152.913 251.214,151.449 249.750 C 149.933 248.235,149.451 247.897,149.451 248.352 M246.454 252.180 C 245.703 252.617,245.507 253.347,246.140 253.347 C 246.352 253.347,246.718 252.987,246.953 252.547 C 247.439 251.639,247.414 251.620,246.454 252.180 M199.101 270.424 C 200.145 270.506,201.853 270.506,202.897 270.424 C 203.941 270.341,203.087 270.274,200.999 270.274 C 198.911 270.274,198.057 270.341,199.101 270.424 " stroke="none" fill="#747474" fill-rule="evenodd"></path><path id="path4" d="M199.001 116.284 C 199.001 116.503,199.530 116.683,200.176 116.683 C 200.823 116.683,201.463 116.503,201.598 116.284 C 201.745 116.046,201.270 115.884,200.423 115.884 C 199.641 115.884,199.001 116.064,199.001 116.284 M202.198 116.284 C 202.198 116.503,202.468 116.683,202.797 116.683 C 203.127 116.683,203.397 116.503,203.397 116.284 C 203.397 116.064,203.127 115.884,202.797 115.884 C 202.468 115.884,202.198 116.064,202.198 116.284 M215.365 158.531 C 215.255 159.459,215.318 160.067,215.504 159.881 C 215.690 159.694,215.780 158.935,215.703 158.193 C 215.568 156.876,215.560 156.885,215.365 158.531 M191.808 171.828 C 191.808 172.268,191.988 172.627,192.208 172.627 C 192.428 172.627,192.607 172.268,192.607 171.828 C 192.607 171.389,192.428 171.029,192.208 171.029 C 191.988 171.029,191.808 171.389,191.808 171.828 M191.932 229.570 C 191.934 230.889,192.009 231.380,192.098 230.662 C 192.187 229.944,192.185 228.865,192.094 228.265 C 192.003 227.664,191.930 228.252,191.932 229.570 M191.472 240.600 C 191.023 241.324,191.023 241.521,191.472 241.801 C 192.045 242.160,192.370 241.450,192.137 240.346 C 192.037 239.870,191.889 239.926,191.472 240.600 M201.998 249.351 C 198.956 249.591,199.043 249.607,203.796 249.671 C 207.144 249.716,208.594 249.610,208.192 249.351 C 207.562 248.943,207.142 248.943,201.998 249.351 " stroke="none" fill="#798174" fill-rule="evenodd"></path></g></svg>